<?xml version="1.0" encoding="UTF-8" standalone="no"?>
<!-- Created with Inkscape (http://www.inkscape.org/) -->

<svg
   xmlns:dc="http://purl.org/dc/elements/1.1/"
   xmlns:cc="http://creativecommons.org/ns#"
   xmlns:rdf="http://www.w3.org/1999/02/22-rdf-syntax-ns#"
   xmlns:svg="http://www.w3.org/2000/svg"
   xmlns="http://www.w3.org/2000/svg"
   xmlns:sodipodi="http://sodipodi.sourceforge.net/DTD/sodipodi-0.dtd"
   xmlns:inkscape="http://www.inkscape.org/namespaces/inkscape"
   id="svg2"
   version="1.1"
   inkscape:version="0.91 r13725"
   xml:space="preserve"
   width="456.24625"
   height="272.45517"
   viewBox="0 0 456.24625 272.45517"
   sodipodi:docname="guidedSampling_repell_2.svg"><metadata
     id="metadata8"><rdf:RDF><cc:Work
         rdf:about=""><dc:format>image/svg+xml</dc:format><dc:type
           rdf:resource="http://purl.org/dc/dcmitype/StillImage" /><dc:title></dc:title></cc:Work></rdf:RDF></metadata><defs
     id="defs6"><clipPath
       clipPathUnits="userSpaceOnUse"
       id="clipPath18"><path
         d="M 0,0 365,0 365,218 0,218 0,0 Z"
         id="path20"
         inkscape:connector-curvature="0" /></clipPath><clipPath
       clipPathUnits="userSpaceOnUse"
       id="clipPath38"><path
         d="M 0,0 365,0 365,218 0,218 0,0 Z"
         id="path40"
         inkscape:connector-curvature="0" /></clipPath><clipPath
       clipPathUnits="userSpaceOnUse"
       id="clipPath54"><path
         d="M 0,0 365,0 365,218 0,218 0,0 Z"
         id="path56"
         inkscape:connector-curvature="0" /></clipPath><clipPath
       clipPathUnits="userSpaceOnUse"
       id="clipPath70"><path
         d="M 0,0 365,0 365,218 0,218 0,0 Z"
         id="path72"
         inkscape:connector-curvature="0" /></clipPath><clipPath
       clipPathUnits="userSpaceOnUse"
       id="clipPath86"><path
         d="M 0,0 365,0 365,218 0,218 0,0 Z"
         id="path88"
         inkscape:connector-curvature="0" /></clipPath><clipPath
       clipPathUnits="userSpaceOnUse"
       id="clipPath102"><path
         d="M 0,0 365,0 365,218 0,218 0,0 Z"
         id="path104"
         inkscape:connector-curvature="0" /></clipPath><clipPath
       clipPathUnits="userSpaceOnUse"
       id="clipPath118"><path
         d="M 25.539,6.844 24.988,195.547"
         id="path120"
         inkscape:connector-curvature="0"
         style="clip-rule:evenodd" /></clipPath><clipPath
       clipPathUnits="userSpaceOnUse"
       id="clipPath126"><path
         d="m 554.58756,424.36236 18.13615,0 0,197.72579 -18.13615,0 0,-197.72579 z"
         id="path128"
         inkscape:connector-curvature="0" /></clipPath><linearGradient
       x1="554.06049"
       y1="523.01733"
       x2="573.34454"
       y2="523.01733"
       gradientUnits="userSpaceOnUse"
       spreadMethod="pad"
       id="linearGradient130"><stop
         style="stop-opacity:1;stop-color:#ffffff"
         offset="0"
         id="stop132" /><stop
         style="stop-opacity:0;stop-color:#ffffff"
         offset="1"
         id="stop134" /></linearGradient><mask
       maskUnits="userSpaceOnUse"
       x="0"
       y="0"
       width="1"
       height="1"
       id="mask136"><g
         id="g138"><g
           clip-path="url(#clipPath126)"
           id="g140"><path
             d="m 554.58756,424.36236 18.13615,0 0,197.72579 -18.13615,0 0,-197.72579 z"
             style="fill:url(#linearGradient130);stroke:none"
             id="path142"
             inkscape:connector-curvature="0" /></g></g></mask><linearGradient
       x1="554.06049"
       y1="523.01733"
       x2="573.34454"
       y2="523.01733"
       gradientUnits="userSpaceOnUse"
       spreadMethod="pad"
       id="linearGradient146"><stop
         style="stop-opacity:1;stop-color:#000000"
         offset="0"
         id="stop148" /><stop
         style="stop-opacity:1;stop-color:#000000"
         offset="1"
         id="stop150" /></linearGradient><clipPath
       clipPathUnits="userSpaceOnUse"
       id="clipPath166"><path
         d="M 358.406,194.832 24.793,194.414"
         id="path168"
         inkscape:connector-curvature="0"
         style="clip-rule:evenodd" /></clipPath><clipPath
       clipPathUnits="userSpaceOnUse"
       id="clipPath174"><path
         d="m 554.68344,424.37216 18.01366,0 0,197.17945 -18.01366,0 0,-197.17945 z"
         id="path176"
         inkscape:connector-curvature="0" /></clipPath><linearGradient
       x1="554.06049"
       y1="523.01733"
       x2="573.34454"
       y2="523.01733"
       gradientUnits="userSpaceOnUse"
       spreadMethod="pad"
       id="linearGradient178"><stop
         style="stop-opacity:1;stop-color:#ffffff"
         offset="0"
         id="stop180" /><stop
         style="stop-opacity:0;stop-color:#ffffff"
         offset="1"
         id="stop182" /></linearGradient><mask
       maskUnits="userSpaceOnUse"
       x="0"
       y="0"
       width="1"
       height="1"
       id="mask184"><g
         id="g186"><g
           clip-path="url(#clipPath174)"
           id="g188"><path
             d="m 554.68344,424.37216 18.01366,0 0,197.17945 -18.01366,0 0,-197.17945 z"
             style="fill:url(#linearGradient178);stroke:none"
             id="path190"
             inkscape:connector-curvature="0" /></g></g></mask><linearGradient
       x1="554.06049"
       y1="523.01733"
       x2="573.34454"
       y2="523.01733"
       gradientUnits="userSpaceOnUse"
       spreadMethod="pad"
       id="linearGradient194"><stop
         style="stop-opacity:1;stop-color:#000000"
         offset="0"
         id="stop196" /><stop
         style="stop-opacity:1;stop-color:#000000"
         offset="1"
         id="stop198" /></linearGradient></defs><sodipodi:namedview
     pagecolor="#ffffff"
     bordercolor="#666666"
     borderopacity="1"
     objecttolerance="10"
     gridtolerance="10"
     guidetolerance="10"
     inkscape:pageopacity="0"
     inkscape:pageshadow="2"
     inkscape:window-width="1366"
     inkscape:window-height="708"
     id="namedview4"
     showgrid="false"
     inkscape:zoom="1.2249883"
     inkscape:cx="231.38554"
     inkscape:cy="102.04572"
     inkscape:window-x="0"
     inkscape:window-y="31"
     inkscape:window-maximized="1"
     inkscape:current-layer="g12" /><g
     id="g10"
     inkscape:groupmode="layer"
     inkscape:label="guidedSampling_repell_2"
     transform="scale(1.25,1.25)"><g
       id="g12"><g
         id="g14"
         style="stroke:#00a200;stroke-opacity:1;fill:#00a200;fill-opacity:1"><g
           id="g16"
           style="stroke:#00a200;stroke-opacity:1;fill:#00a200;fill-opacity:1" /><g
           id="g22"
           style="stroke:#00a200;stroke-opacity:1;fill:#00a200;fill-opacity:1"><g
             clip-path="url(#clipPath18)"
             id="g24"
             style="opacity:0.85399996;stroke:#00a200;stroke-opacity:1;fill:#00a200;fill-opacity:1"><g
               id="g26"
               style="stroke:#00a200;stroke-opacity:1;fill:#00a200;fill-opacity:1"><path
                 d="m 111.527,120.703 c 0,2.074 -1.675,3.75 -3.746,3.75 -2.07,0.004 -3.75,-1.676 -3.754,-3.746 0,-2.07 1.676,-3.75 3.746,-3.754 2.071,0 3.754,1.676 3.754,3.746 l -3.75,0.004 3.75,0 z"
                 style="fill:#00a200;fill-opacity:1;fill-rule:nonzero;stroke:#00a200;stroke-opacity:1"
                 id="path28"
                 inkscape:connector-curvature="0" /></g></g></g></g><g
         id="g30"
         transform="scale(1,-1)"><path
           d="m 24.375,-53.727 3.566,0 3.352,-0.652 3.57,-1.133 4.133,-1.957 5.004,-3.219 2.828,-2.48 3.047,-2.832 3.223,-3.395 2.304,-3 2.004,-2.699 2.957,-3.785 3.309,-5.137 2.914,-4.527 2.266,-3.074 c 8.082,-11.711 13.488,-6.571 29.375,-20.617 l 4.351,-6.278 c 0,0 2.524,-2.179 2.699,-2.179 0.172,0 2.129,-1.172 2.129,-1.172 l 1.614,-0.09 c 0,0 1.523,0.523 1.738,0.609 0.219,0.09 1.566,0.914 1.566,0.914 l 2.352,2.133 3.48,4.266 3.481,5.004 c 24.09,21.648 26.863,19.246 55.054,21.531 17.512,-0.484 22.45,-27.164 34.77,-30.594 0,0 2.309,-1.047 2.57,-1.09 0.258,-0.043 2.481,-0.215 2.481,-0.215 l 2.304,0.391 2.567,1.262 2.527,1.957 2.785,3.223 2.348,3 2.699,3.222 2.262,2.438 1.566,1.652 4.399,3.742 3.48,2.176 3.219,1.219 3.223,0.48 2.566,-0.219 3.481,-0.828 c 0,0 2.57,-1.781 2.742,-1.871 0.175,-0.086 3.175,-2.695 3.175,-2.695 l 2.918,-3.352 3.004,-4.136 2.785,-3.828 2.043,-3.047 c 0,0 2.09,-2.871 2.266,-3.09 0.172,-0.219 2.086,-2.785 2.086,-2.785 l 2.309,-1.786 2.043,-0.781 1.742,-0.133 c 13.797,0.325 48.004,34.36 50.133,43.829"
           style="fill:none;stroke:#00a200;stroke-width:1.5;stroke-linecap:butt;stroke-linejoin:miter;stroke-miterlimit:4;stroke-dasharray:none;stroke-opacity:1"
           id="path32"
           inkscape:connector-curvature="0" /></g><g
         id="g34"><g
           id="g36" /><g
           id="g42"><g
             clip-path="url(#clipPath38)"
             id="g44"
             style="opacity:0.85399996"><g
               id="g46"><path
                 d="m 219.828,119.695 c 0,2.071 -1.676,3.75 -3.746,3.75 -2.07,0.004 -3.75,-1.675 -3.754,-3.746 0,-2.07 1.676,-3.75 3.746,-3.754 2.071,0 3.75,1.676 3.754,3.746 l -3.75,0.004 3.75,0 z"
                 style="fill:#000000;fill-opacity:1;fill-rule:nonzero;stroke:none"
                 id="path48"
                 inkscape:connector-curvature="0" /></g></g></g></g><g
         id="g50"><g
           id="g52" /><g
           id="g58"><g
             clip-path="url(#clipPath54)"
             id="g60"
             style="opacity:0.85399996"><g
               id="g62"><path
                 d="m 286.703,123.246 c 0,2.07 -1.68,3.75 -3.75,3.75 -2.07,0.004 -3.75,-1.676 -3.75,-3.746 0,-2.07 1.676,-3.75 3.746,-3.754 2.071,0 3.75,1.676 3.754,3.746 l -3.75,0.004 3.75,0 z"
                 style="fill:#000000;fill-opacity:1;fill-rule:nonzero;stroke:none"
                 id="path64"
                 inkscape:connector-curvature="0" /></g></g></g></g><g
         id="g66"><g
           id="g68" /><g
           id="g74"><g
             clip-path="url(#clipPath70)"
             id="g76"
             style="opacity:0.85399996"><g
               id="g78"><path
                 d="m 27.484,48.867 4.95,5.328 -5.332,4.953 -4.95,-5.332 5.332,-4.949 z"
                 style="fill:#000000;fill-opacity:1;fill-rule:nonzero;stroke:none"
                 id="path80"
                 inkscape:connector-curvature="0" /></g></g></g></g><g
         id="g82"><g
           id="g84" /><g
           id="g90"><g
             clip-path="url(#clipPath86)"
             id="g92"
             style="opacity:0.85399996"><g
               id="g94"><path
                 d="m 177.211,83.191 4.949,5.332 -5.332,4.95 -4.949,-5.332 5.332,-4.95 z"
                 style="fill:#000000;fill-opacity:1;fill-rule:nonzero;stroke:none"
                 id="path96"
                 inkscape:connector-curvature="0" /></g></g></g></g><g
         id="g98"><g
           id="g100" /><g
           id="g106"><g
             clip-path="url(#clipPath102)"
             id="g108"
             style="opacity:0.85399996"><g
               id="g110"><path
                 d="m 251.188,90.293 4.949,5.332 -5.332,4.949 -4.95,-5.332 5.333,-4.949 z"
                 style="fill:#000000;fill-opacity:1;fill-rule:nonzero;stroke:none"
                 id="path112"
                 inkscape:connector-curvature="0" /></g></g></g></g><g
         id="g114"><g
           id="g116"
           clip-path="url(#clipPath118)"><g
             id="g122"
             transform="matrix(9.369103,-0.146719,0.849254,-0.974384,-5700.2991,693.52122)"><g
               id="g124" /><g
               id="g144"
               mask="url(#mask136)"><path
                 d="M 25.539,6.844 24.988,195.547"
                 style="fill:url(#linearGradient146);fill-rule:evenodd;stroke:none"
                 id="path152"
                 inkscape:connector-curvature="0" /></g></g></g></g><g
         id="g154"
         transform="scale(1,-1)"><path
           d="M 25.539,-6.844 24.988,-195.547"
           style="fill:none;stroke:#000000;stroke-width:3.50102592;stroke-linecap:butt;stroke-linejoin:miter;stroke-miterlimit:2;stroke-dasharray:none;stroke-opacity:1"
           id="path156"
           inkscape:connector-curvature="0" /></g><g
         id="g158"
         transform="matrix(-0.00291315,1,1,0.00291315,0,0)"><path
           d="m 20.777,25.557 7.001,-7.003 -24.509,7.002 24.507,7.001 -6.999,-7 z"
           style="fill:#000000;fill-opacity:1;fill-rule:evenodd;stroke:#000000;stroke-width:1.86720598;stroke-linecap:butt;stroke-linejoin:miter;stroke-miterlimit:4;stroke-dasharray:none;stroke-opacity:1"
           id="path160"
           inkscape:connector-curvature="0" /></g><g
         id="g162"><g
           id="g164"
           clip-path="url(#clipPath166)"><g
             id="g170"
             transform="matrix(0.25939,7.117317,1.722657,0.645143,-855.5997,-4154.8473)"><g
               id="g172" /><g
               id="g192"
               mask="url(#mask184)"><path
                 d="M 358.406,194.832 24.793,194.414"
                 style="fill:url(#linearGradient194);fill-rule:evenodd;stroke:none"
                 id="path200"
                 inkscape:connector-curvature="0" /></g></g></g></g><g
         id="g202"
         transform="scale(1,-1)"><path
           d="m 358.406,-194.832 -333.613,0.418"
           style="fill:none;stroke:#000000;stroke-width:3.53341198;stroke-linecap:butt;stroke-linejoin:miter;stroke-miterlimit:2;stroke-dasharray:none;stroke-opacity:1"
           id="path204"
           inkscape:connector-curvature="0" /></g><g
         id="g206"
         transform="matrix(-1,-0.00125178,-0.00125178,1,0,0)"><path
           d="m -344.513,194.381 7.064,-7.065 -24.732,7.067 24.734,7.066 -7.066,-7.068 z"
           style="fill:#000000;fill-opacity:1;fill-rule:evenodd;stroke:#000000;stroke-width:1.88448501;stroke-linecap:butt;stroke-linejoin:miter;stroke-miterlimit:4;stroke-dasharray:none;stroke-opacity:1"
           id="path208"
           inkscape:connector-curvature="0" /></g><text
         transform="matrix(0,-1,0.99999988,0,12.301936,138.1265)"
         style="font-variant:normal;font-weight:normal;font-size:16.87500381px;font-family:'DejaVu Sans';-inkscape-font-specification:DejaVuSans;writing-mode:lr-tb;fill:#000000;fill-opacity:1;fill-rule:nonzero;stroke:none"
         id="text210"><tspan
           x="0 10.648127 21.330004 31.70813 38.390633 49.089382"
           y="0"
           sodipodi:role="line"
           id="tspan212">Energy</tspan></text>
<text
         transform="translate(108.70994,214.45399)"
         style="font-variant:normal;font-weight:normal;font-size:16.875px;font-family:'DejaVu Sans';-inkscape-font-specification:DejaVuSans;writing-mode:lr-tb;fill:#000000;fill-opacity:1;fill-rule:nonzero;stroke:none"
         id="text214"><tspan
           x="0 11.77875 22.089375 32.771252 38.71125 49.021873 55.6875 72.123749 82.451248 89.066254 93.740623 104.05125 114.73312 120.0825 128.8575 139.55624 149.93437 159.19875"
           y="0"
           sodipodi:role="line"
           id="tspan216">Conformation space</tspan></text>
<g
         id="g218"
         transform="scale(1,-1)"><path
           d="m 107.777,-155.207 0,32.023"
           style="fill:none;stroke:#00a200;stroke-width:1.5;stroke-linecap:butt;stroke-linejoin:miter;stroke-miterlimit:4;stroke-dasharray:none;stroke-opacity:1"
           id="path220"
           inkscape:connector-curvature="0" /></g><g
         id="g222"
         transform="matrix(0,1,1,0,0,0)"><path
           d="m 129.184,107.777 3,-3 -10.5,3 10.5,3 -3,-3 z"
           style="fill:#00a200;fill-opacity:1;fill-rule:evenodd;stroke:#00a200;stroke-width:0.80000001;stroke-linecap:butt;stroke-linejoin:miter;stroke-miterlimit:4;stroke-dasharray:none;stroke-opacity:1"
           id="path224"
           inkscape:connector-curvature="0" /></g><text
         transform="translate(84.853215,174.01217)"
         style="font-variant:normal;font-weight:normal;font-size:16.875px;font-family:'DejaVu Sans';-inkscape-font-specification:DejaVuSans;writing-mode:lr-tb;fill:#000000;fill-opacity:1;fill-rule:nonzero;stroke:none"
         id="text226"><tspan
           x="0 10.69875 27.135 33.075001"
           y="0"
           sodipodi:role="line"
           id="tspan228">Smfe</tspan></text>
<text
         transform="translate(192.02294,133.5507)"
         style="font-variant:normal;font-weight:normal;font-size:16.875px;font-family:'DejaVu Sans';-inkscape-font-specification:DejaVuSans;writing-mode:lr-tb;fill:#000000;fill-opacity:1;fill-rule:nonzero;stroke:none"
         id="text230"><tspan
           x="0 10.69875"
           y="0"
           sodipodi:role="line"
           id="tspan232">S1</tspan></text>
<text
         transform="translate(287.89519,138.28515)"
         style="font-variant:normal;font-weight:normal;font-size:16.875px;font-family:'DejaVu Sans';-inkscape-font-specification:DejaVuSans;writing-mode:lr-tb;fill:#000000;fill-opacity:1;fill-rule:nonzero;stroke:none"
         id="text234"><tspan
           x="0 10.69875"
           y="0"
           sodipodi:role="line"
           id="tspan236">S2</tspan></text>
<text
         y="139.86118"
         x="110.97544"
         style="font-variant:normal;font-weight:200;font-size:16.875px;font-family:'DejaVu Sans';-inkscape-font-specification:'DejaVu Sans Ultra-Light';writing-mode:lr-tb;fill:#00a200;fill-opacity:1;fill-rule:nonzero;stroke:#00a200;stroke-opacity:1;font-style:normal;font-stretch:normal;"
         id="text230-7"><tspan
           x="110.97544"
           y="139.86118"
           sodipodi:role="line"
           id="tspan232-5">Ê</tspan></text>
</g><path
       d="m 24.415016,53.713895 3.566,0 3.351997,0.652 3.57,1.133 4.133,1.957 5.004,3.219 2.828,2.48 3.047,2.832 3.223,3.395 2.304,3 2.004,2.699 2.957,3.785 3.309,5.137 2.914,4.527 2.266,4.004 2.304,3.957 6.66,12.492005 5.266,10.098 5.48,10.269 2.176,4.004 2.614,5.223 2.132,3.609 2.743,3.961 4.351007,5.352 c 0,0 2.524,2.179 2.699,2.179 0.172,0 2.129,1.172 2.129,1.172 l 1.614,0.09 c 0,0 1.523,-0.523 1.738,-0.609 0.219,-0.09 1.566,-0.914 1.566,-0.914 l 2.352,-2.133 3.48,-4.266 3.481,-5.004 c 14.629,-24.8 26.863,-52.246005 55.054,-54.531005 17.512,0.484 22.45,27.164005 34.77,30.594005 0,0 2.309,1.047 2.57,1.09 0.258,0.043 2.481,0.215 2.481,0.215 l 2.304,-0.391 2.567,-1.262 2.527,-1.957 2.785,-3.223 2.348,-3 2.699,-3.222 2.262,-2.438 1.566,-1.652 4.399,-3.742005 3.48,-2.176 3.219,-1.219 3.223,-0.48 2.566,0.219 3.481,0.828 c 0,0 2.57,1.781 2.742,1.871 0.175,0.086 3.175,2.695005 3.175,2.695005 l 2.918,3.352 3.004,4.136 2.785,3.828 2.043,3.047 c 0,0 2.09,2.871 2.266,3.09 0.172,0.219 2.086,2.785 2.086,2.785 l 2.309,1.786 2.043,0.781 1.742,0.133 c 13.797,-0.325 48.004,-34.360005 50.133,-43.829005"
       style="fill:none;stroke:#000000;stroke-width:1.5;stroke-linecap:butt;stroke-linejoin:miter;stroke-miterlimit:4;stroke-dasharray:none;stroke-opacity:1"
       id="path32-3"
       inkscape:connector-curvature="0" /></g></svg>