/* XPM */
static char * g2_xpm[] = {
"40 40 137 2",
"  	c none",
". 	c #6B1214",
"+ 	c #6E1314",
"@ 	c #891C18",
"# 	c #8F1E19",
"$ 	c #821A17",
"% 	c #841A17",
"& 	c #BD2D1E",
"* 	c #EC3C24",
"= 	c #C22F1F",
"- 	c #7D1816",
"; 	c #851A17",
"> 	c #731515",
", 	c #BC2C1E",
"' 	c #B1291D",
") 	c #8D1D18",
"! 	c #721415",
"~ 	c #942019",
"{ 	c #A0231B",
"] 	c #C93120",
"^ 	c #6A1214",
"/ 	c #6D1314",
"( 	c #771616",
"_ 	c #8A1C18",
": 	c #A5251B",
"< 	c #C12E1F",
"[ 	c #D53522",
"} 	c #9E231B",
"| 	c #6F1315",
"1 	c #681114",
"2 	c #7A1716",
"3 	c #831A17",
"4 	c #7F1817",
"5 	c #911E19",
"6 	c #AA271C",
"7 	c #C73020",
"8 	c #E03823",
"9 	c #E73B24",
"0 	c #D23421",
"a 	c #B42A1D",
"b 	c #962019",
"c 	c #7E1817",
"d 	c #711415",
"e 	c #9B221A",
"f 	c #7F1917",
"g 	c #AF281D",
"h 	c #CA3120",
"i 	c #DD3722",
"j 	c #E13923",
"k 	c #D73522",
"l 	c #C42F1F",
"m 	c #AE281D",
"n 	c #9D221A",
"o 	c #931F19",
"p 	c #8E1E19",
"q 	c #861B18",
"r 	c #751515",
"s 	c #B52A1D",
"t 	c #881B18",
"u 	c #6C1214",
"v 	c #761615",
"w 	c #AD281C",
"x 	c #D83622",
"y 	c #D03321",
"z 	c #C83120",
"A 	c #C22E1F",
"B 	c #BD2D1F",
"C 	c #A9261C",
"D 	c #A4251B",
"E 	c #DB3722",
"F 	c #851B17",
"G 	c #A3241B",
"H 	c #E43A23",
"I 	c #B32A1D",
"J 	c #9C221A",
"K 	c #9E231A",
"L 	c #D33421",
"M 	c #901E19",
"N 	c #A7261C",
"O 	c #C02E1F",
"P 	c #AC271C",
"Q 	c #8E1D18",
"R 	c #761515",
"S 	c #691114",
"T 	c #8B1C18",
"U 	c #761616",
"V 	c #B82B1E",
"W 	c #871B18",
"X 	c #671114",
"Y 	c #8C1D18",
"Z 	c #7B1716",
"` 	c #861B17",
" .	c #881C18",
"..	c #801917",
"+.	c #A6251C",
"@.	c #CB3120",
"#.	c #DC3722",
"$.	c #791716",
"%.	c #9A221A",
"&.	c #BA2C1E",
"*.	c #98211A",
"=.	c #B2291D",
"-.	c #99211A",
";.	c #B62B1E",
">.	c #D13421",
",.	c #D53521",
"'.	c #CE3321",
").	c #952019",
"!.	c #EB3C24",
"~.	c #E83B24",
"{.	c #DE3823",
"].	c #9F231B",
"^.	c #BB2C1E",
"/.	c #CF3321",
"(.	c #C32F1F",
"_.	c #7C1816",
":.	c #7E1816",
"<.	c #DA3622",
"[.	c #E63A24",
"}.	c #EA3C24",
"|.	c #B0281D",
"1.	c #D63522",
"2.	c #E23923",
"3.	c #E53A23",
"4.	c #AB271C",
"5.	c #D93622",
"6.	c #811917",
"7.	c #97211A",
"8.	c #7C1716",
"9.	c #741515",
"0.	c #A8261C",
"a.	c #A2241B",
"b.	c #D43421",
"c.	c #D43521",
"d.	c #CC3220",
"e.	c #E93B24",
"f.	c #BC2D1E",
"                                                                                ",
"                                                                                ",
"                                                                                ",
"                                                                                ",
"                                                                                ",
"                                                                                ",
"                                                                                ",
"                                                              . + @             ",
"                                                          # $ % & * = -         ",
"                                                          ; >       , '         ",
"                                                          )           ! ~       ",
"                                                                      { ]       ",
"                      . ^ / ( _ : <     [ & } $ | 1 ^                 2         ",
"                  _ 3 4 $ 5 6 7 8 * 9 0 a b c d . . ^               $ 7         ",
"                e @ f 3 ~ g h i j k l m n o p ) _ q %             r s           ",
"              t ! u v # w       x y z l A B s C                 D E             ",
"              ^ | F G               H E h I J                 K D     L         ",
"            3 M N O                   P Q R u             S S .       T U       ",
"            } 6 a                       ^ / f           V W X Y 6 5 Z ( u       ",
"            `  .Y                       ..M G           +.{ @.#.x [ C u 2       ",
"            / $.#                       $  .Y                                   ",
"            f %.&.                      . | $.                                  ",
"            *.' =                       v @ +.                                  ",
"            g &.&.=.                  $ -.;.>.                                  ",
"            ,.,.0 y '.                ).' 7 >.                                  ",
"              !.!.~.{.]           $ ].^./.k k                                   ",
"                ~.E (.: T _.:.# C l <.[.!.!.}.                                  ",
"                  7 |.].e G a 7 1.{.j 2.3.9 9                                   ",
"                    ].K G 4.' a ;.&.(.  #.j 5.                                  ",
"                          6.% )         }.8 ]                                   ",
"                                        >.;.e                                   ",
"                                      G _ ( u                                   ",
"                                  7.t 8.R 9.>                                   ",
"                    f o +.' I m 0.D G a.].).                                    ",
"                    7 b.5.x 1.[ 1.c.d.^.a.                                      ",
"                    * e.9 9 }.* [.1.f.                                          ",
"                                                                                ",
"                                                                                ",
"                                                                                ",
"                                                                                "};
