<?xml version="1.0" encoding="UTF-8" standalone="no"?>
<!-- Created with Inkscape (http://www.inkscape.org/) -->

<svg
   xmlns:dc="http://purl.org/dc/elements/1.1/"
   xmlns:cc="http://creativecommons.org/ns#"
   xmlns:rdf="http://www.w3.org/1999/02/22-rdf-syntax-ns#"
   xmlns:svg="http://www.w3.org/2000/svg"
   xmlns="http://www.w3.org/2000/svg"
   xmlns:sodipodi="http://sodipodi.sourceforge.net/DTD/sodipodi-0.dtd"
   xmlns:inkscape="http://www.inkscape.org/namespaces/inkscape"
   width="84.611229mm"
   height="22.081322mm"
   viewBox="0 0 299.80357 78.240903"
   id="svg7299"
   version="1.1"
   inkscape:version="0.91 r13725"
   sodipodi:docname="decomp_ml_ml.svg">
  <defs
     id="defs7301" />
  <sodipodi:namedview
     id="base"
     pagecolor="#ffffff"
     bordercolor="#666666"
     borderopacity="1.0"
     inkscape:pageopacity="0.0"
     inkscape:pageshadow="2"
     inkscape:zoom="3.3486569"
     inkscape:cx="189.76285"
     inkscape:cy="-6.9096708"
     inkscape:document-units="px"
     inkscape:current-layer="layer1"
     showgrid="false"
     showguides="true"
     inkscape:guide-bbox="true"
     inkscape:window-width="1920"
     inkscape:window-height="1058"
     inkscape:window-x="1920"
     inkscape:window-y="0"
     inkscape:window-maximized="1"
     fit-margin-top="0"
     fit-margin-left="0"
     fit-margin-right="0"
     fit-margin-bottom="0">
    <sodipodi:guide
       position="235.28126,26.372897"
       orientation="0,1"
       id="guide7940" />
    <sodipodi:guide
       position="304.74554,13.337187"
       orientation="0,1"
       id="guide7978" />
    <sodipodi:guide
       position="196.17412,60.658615"
       orientation="0,1"
       id="guide8024" />
  </sodipodi:namedview>
  <metadata
     id="metadata7304">
    <rdf:RDF>
      <cc:Work
         rdf:about="">
        <dc:format>image/svg+xml</dc:format>
        <dc:type
           rdf:resource="http://purl.org/dc/dcmitype/StillImage" />
        <dc:title></dc:title>
      </cc:Work>
    </rdf:RDF>
  </metadata>
  <g
     inkscape:label="Layer 1"
     inkscape:groupmode="layer"
     id="layer1"
     transform="translate(407.78125,-273.35134)">
    <path
       id="path3036"
       style="fill:#56b4e9;fill-opacity:1;fill-rule:evenodd;stroke:none"
       d="m -401.875,324.55662 0.0752,-0.14987 0.1499,-0.30038 0.2251,-0.52487 0.4497,-0.82463 0.5249,-1.125 0.75,-1.5 0.9004,-1.72512 1.0498,-2.10013 1.2002,-2.25 1.27492,-2.39987 1.42475,-2.55038 1.5,-2.62475 1.5,-2.7 1.57525,-2.625 1.64988,-2.625 1.64987,-2.55 1.72513,-2.475 1.79975,-2.325 1.875,-2.25 1.875,-2.1 2.0255,-1.95 2.02487,-1.725 2.17475,-1.5 2.17538,-1.275 2.17475,-0.825 2.70025,-0.525 2.39987,0.225 2.02488,0.675 1.5,1.2 1.04975,1.5 0.60012,1.725 0.30038,1.95 0.0746,2.025 -0.14987,2.175 -0.22513,2.175 -0.14987,2.175 -0.0752,2.175 0.0752,2.1 0.375,2.025 0.75,1.875 1.20025,1.65 1.7245,1.425 2.32525,0.975 2.77487,0.6 3.22513,0 2.62499,-0.375 2.70026,-0.675 2.54974,-0.975 2.39988,-1.125 2.17538,-1.275 2.02487,-1.35 1.79975,-1.5 1.57525,-1.425 1.42475,-1.575 1.27487,-1.5 1.20025,-1.5 1.125,-1.575 1.04975,-1.575 1.05038,-1.5 1.04975,-1.575 1.125,-1.575 1.20025,-1.575 1.35012,-1.5 1.5,-1.5 1.64988,-1.5 1.79975,-1.5 1.95025,-1.35 2.10012,-1.2 2.0995,-1.125 2.17538,-0.825 2.02487,-0.6 2.32525,-0.3 1.79975,0.15 1.35013,0.45 0.89987,0.6 0.45025,0.75 0.0746,0.825 -0.14988,0.9 -0.45025,0.9 -0.52487,0.9 -0.60013,0.9 -0.67475,0.975 -0.60012,1.05 -0.52488,1.2 -0.375,1.275 -0.14987,1.425 0,1.65 0.29975,1.95 0.60013,2.1 0.82524,2.325 1.04976,2.475 1.20024,2.55 1.19964,2.475 1.20025,2.325 1.19962,2.25 1.20025,2.025 1.125,1.95025 1.20025,1.875 1.125,1.79975 1.04975,1.72513 1.125,1.57462 0.975,1.57525 0.975,1.35013 0.9,1.27487 0.75,1.04975 0.6,0.9005 0.44999,0.67475 0.375,0.375 0.15001,0.29975 0.075,0.0752"
       inkscape:connector-curvature="0" />
    <path
       id="path3038"
       style="fill:none;stroke:#000000;stroke-width:0.5625;stroke-linecap:butt;stroke-linejoin:bevel;stroke-miterlimit:10;stroke-dasharray:none;stroke-opacity:1"
       d="m -401.875,324.55662 0.0752,-0.14987 0.1499,-0.30038 0.2251,-0.52487 0.4497,-0.82463 0.5249,-1.125 0.75,-1.5 0.9004,-1.72512 1.0498,-2.10013 1.2002,-2.25 1.27492,-2.39987 1.42475,-2.55038 1.5,-2.62475 1.5,-2.7 1.57525,-2.625 1.64988,-2.625 1.64987,-2.55 1.72513,-2.475 1.79975,-2.325 1.875,-2.25 1.875,-2.1 2.0255,-1.95 2.02487,-1.725 2.17475,-1.5 2.17538,-1.275 2.17475,-0.825 2.70025,-0.525 2.39987,0.225 2.02488,0.675 1.5,1.2 1.04975,1.5 0.60012,1.725 0.30038,1.95 0.0746,2.025 -0.14987,2.175 -0.22513,2.175 -0.14987,2.175 -0.0752,2.175 0.0752,2.1 0.375,2.025 0.75,1.875 1.20025,1.65 1.7245,1.425 2.32525,0.975 2.77487,0.6 3.22513,0 2.62499,-0.375 2.70026,-0.675 2.54974,-0.975 2.39988,-1.125 2.17538,-1.275 2.02487,-1.35 1.79975,-1.5 1.57525,-1.425 1.42475,-1.575 1.27487,-1.5 1.20025,-1.5 1.125,-1.575 1.04975,-1.575 1.05038,-1.5 1.04975,-1.575 1.125,-1.575 1.20025,-1.575 1.35012,-1.5 1.5,-1.5 1.64988,-1.5 1.79975,-1.5 1.95025,-1.35 2.10012,-1.2 2.0995,-1.125 2.17538,-0.825 2.02487,-0.6 2.32525,-0.3 1.79975,0.15 1.35013,0.45 0.89987,0.6 0.45025,0.75 0.0746,0.825 -0.14988,0.9 -0.45025,0.9 -0.52487,0.9 -0.60013,0.9 -0.67475,0.975 -0.60012,1.05 -0.52488,1.2 -0.375,1.275 -0.14987,1.425 0,1.65 0.29975,1.95 0.60013,2.1 0.82524,2.325 1.04976,2.475 1.20024,2.55 1.19964,2.475 1.20025,2.325 1.19962,2.25 1.20025,2.025 1.125,1.95025 1.20025,1.875 1.125,1.79975 1.04975,1.72513 1.125,1.57462 0.975,1.57525 0.975,1.35013 0.9,1.27487 0.75,1.04975 0.6,0.9005 0.44999,0.67475 0.375,0.375 0.15001,0.29975 0.075,0.0752"
       inkscape:connector-curvature="0" />
    <path
       id="path3160"
       style="fill:#000000;fill-opacity:1;fill-rule:evenodd;stroke:none"
       d="m -396.25,324.55662 c 0,3.1065 -2.51855,5.625 -5.625,5.625 -3.10645,0 -5.625,-2.5185 -5.625,-5.625 0,-3.1065 2.51855,-5.625 5.625,-5.625 3.10645,0 5.625,2.5185 5.625,5.625"
       inkscape:connector-curvature="0" />
    <path
       id="path3162"
       style="fill:none;stroke:#000000;stroke-width:0.5625;stroke-linecap:butt;stroke-linejoin:bevel;stroke-miterlimit:10;stroke-dasharray:none;stroke-opacity:1"
       d="m -396.25,324.55662 c 0,3.1065 -2.51855,5.625 -5.625,5.625 -3.10645,0 -5.625,-2.5185 -5.625,-5.625 0,-3.1065 2.51855,-5.625 5.625,-5.625 3.10645,0 5.625,2.5185 5.625,5.625 z"
       inkscape:connector-curvature="0" />
    <path
       id="path3164"
       style="fill:#000000;fill-opacity:1;fill-rule:evenodd;stroke:none"
       d="m -272.5,324.55662 c 0,3.1065 -2.51876,5.625 -5.625,5.625 -3.10625,0 -5.625,-2.5185 -5.625,-5.625 0,-3.1065 2.51875,-5.625 5.625,-5.625 3.10624,0 5.625,2.5185 5.625,5.625"
       inkscape:connector-curvature="0" />
    <path
       id="path3166"
       style="fill:none;stroke:#000000;stroke-width:0.5625;stroke-linecap:butt;stroke-linejoin:bevel;stroke-miterlimit:10;stroke-dasharray:none;stroke-opacity:1"
       d="m -272.5,324.55662 c 0,3.1065 -2.51876,5.625 -5.625,5.625 -3.10625,0 -5.625,-2.5185 -5.625,-5.625 0,-3.1065 2.51875,-5.625 5.625,-5.625 3.10624,0 5.625,2.5185 5.625,5.625 z"
       inkscape:connector-curvature="0" />
    <path
       id="path3286"
       style="fill:none;stroke:#000000;stroke-width:1.125;stroke-linecap:butt;stroke-linejoin:miter;stroke-miterlimit:10;stroke-dasharray:none;stroke-opacity:1"
       d="m -401.875,324.55662 123.75,0"
       inkscape:connector-curvature="0" />
    <text
       id="text3352"
       x="-401.87518"
       y="347.05661"
       style="font-size:15px">
      <tspan
         style="font-style:italic;font-variant:normal;font-size:20.00024986px;font-family:'Times New Roman';-inkscape-font-specification:Times-Italic;writing-mode:lr-tb;fill:#000000;fill-opacity:1;fill-rule:nonzero;stroke:none"
         x="-401.87518 -278.12524"
         y="347.05661"
         sodipodi:role="line"
         id="tspan3354">ij</tspan>
    </text>
    <text
       id="text3356"
       x="-351.25018"
       y="290.80661"
       style="font-size:15px">
      <tspan
         style="font-style:italic;font-variant:normal;font-size:24.99975014px;font-family:'Times New Roman';-inkscape-font-specification:Times-Italic;writing-mode:lr-tb;fill:#000000;fill-opacity:1;fill-rule:nonzero;stroke:none"
         x="-351.25018"
         y="290.80661"
         id="tspan3358">M</tspan>
    </text>
    <text
       xml:space="preserve"
       style="font-style:normal;font-variant:normal;font-weight:normal;font-stretch:normal;font-size:10px;line-height:125%;font-family:Arial;-inkscape-font-specification:Arial;text-align:start;letter-spacing:0px;word-spacing:0px;writing-mode:lr-tb;text-anchor:start;fill:#000000;fill-opacity:1;stroke:none;stroke-width:1px;stroke-linecap:butt;stroke-linejoin:miter;stroke-opacity:1"
       x="-262.85715"
       y="311.64792"
       id="text7873"
       sodipodi:linespacing="125%"><tspan
         sodipodi:role="line"
         id="tspan7875"
         x="-262.85715"
         y="311.64792"
         style="font-size:25px">=</tspan></text>
    <path
       id="path3196"
       style="fill:#000000;fill-opacity:1;fill-rule:evenodd;stroke:none"
       d="m -228.34821,324.66005 c 0,3.1065 -2.51876,5.625 -5.625,5.625 -3.10625,0 -5.625,-2.5185 -5.625,-5.625 0,-3.1065 2.51875,-5.625 5.625,-5.625 3.10624,0 5.625,2.5185 5.625,5.625"
       inkscape:connector-curvature="0" />
    <path
       id="path3198"
       style="fill:none;stroke:#000000;stroke-width:0.5625;stroke-linecap:butt;stroke-linejoin:bevel;stroke-miterlimit:10;stroke-dasharray:none;stroke-opacity:1"
       d="m -228.34821,324.66005 c 0,3.1065 -2.51876,5.625 -5.625,5.625 -3.10625,0 -5.625,-2.5185 -5.625,-5.625 0,-3.1065 2.51875,-5.625 5.625,-5.625 3.10624,0 5.625,2.5185 5.625,5.625 z"
       inkscape:connector-curvature="0" />
    <path
       id="path3280"
       style="fill:none;stroke:#000000;stroke-width:1.58049667;stroke-linecap:butt;stroke-linejoin:miter;stroke-miterlimit:10;stroke-dasharray:none;stroke-opacity:1"
       d="m -218.16639,324.88435 86.92731,0"
       inkscape:connector-curvature="0" />
    <path
       id="path3036-2"
       style="fill:#56b4e9;fill-opacity:1;fill-rule:evenodd;stroke:none"
       d="m -220.63819,323.91621 0.0563,-0.11221 0.11224,-0.22491 0.16855,-0.39301 0.33672,-0.61745 0.39302,-0.84236 0.56157,-1.12314 0.67419,-1.29171 0.78605,-1.57249 0.89866,-1.68471 0.95462,-1.79694 1.06679,-1.90963 1.12315,-1.96531 1.12314,-2.02166 1.17949,-1.96549 1.23536,-1.96551 1.23537,-1.90933 1.29171,-1.85319 1.34758,-1.74088 1.40393,-1.68471 1.40392,-1.5724 1.51663,-1.46009 1.51614,-1.29161 1.62837,-1.12314 1.62885,-0.95467 1.62836,-0.61773 2.02185,-0.39311 1.79692,0.16848 1.51616,0.50541 1.12315,0.89852 0.78601,1.12314 0.44934,1.29162 0.22492,1.46008 0.0558,1.51625 -0.11221,1.62855 -0.16857,1.62856 -0.11221,1.62856 -0.0563,1.62855 0.0563,1.5724 0.28078,1.51625 0.56157,1.40393 0.8987,1.23545 1.29124,1.06699 1.74106,0.73004 2.07771,0.44926 2.41486,0 1.96549,-0.28079 2.02185,-0.50541 1.90916,-0.73005 1.79693,-0.84236 1.62884,-0.95466 1.51615,-1.01083 1.34758,-1.12315 1.17949,-1.06698 1.0668,-1.1793 0.95457,-1.12314 0.8987,-1.12315 0.84236,-1.1793 0.78602,-1.1793 0.78648,-1.12314 0.78601,-1.1793 0.84236,-1.1793 0.8987,-1.1793 1.01092,-1.12314 1.12314,-1.12314 1.23537,-1.12315 1.34758,-1.12315 1.46028,-1.01082 1.57249,-0.89851 1.57202,-0.84236 1.62884,-0.61773 1.51615,-0.44926 1.74106,-0.22463 1.34758,0.11232 1.01093,0.33694 0.67379,0.44926 0.33713,0.56157 0.0559,0.61773 -0.11223,0.67389 -0.33713,0.67388 -0.393,0.67388 -0.44936,0.67389 -0.50523,0.73004 -0.44934,0.78621 -0.39301,0.89851 -0.28078,0.95467 -0.11222,1.06698 0,1.23546 0.22443,1.46009 0.44936,1.5724 0.61791,1.74087 0.78602,1.85319 0.89869,1.90934 0.89825,1.85319 0.89871,1.74086 0.89822,1.68472 0.8987,1.51625 0.84236,1.46027 0.8987,1.40392 0.84236,1.34759 0.78601,1.29171 0.84236,1.17902 0.73004,1.17948 0.73005,1.01093 0.67388,0.95458 0.56157,0.78601 0.44926,0.67426 0.33694,0.50522 0.28078,0.28079 0.11232,0.22444 0.0561,0.0563"
       inkscape:connector-curvature="0" />
    <path
       id="path3038-3"
       style="fill:none;stroke:#000000;stroke-width:0.42117858;stroke-linecap:butt;stroke-linejoin:bevel;stroke-miterlimit:10;stroke-dasharray:none;stroke-opacity:1"
       d="m -220.63819,323.91621 0.0563,-0.11221 0.11224,-0.22491 0.16855,-0.39301 0.33672,-0.61745 0.39302,-0.84236 0.56157,-1.12314 0.67419,-1.29171 0.78605,-1.57249 0.89866,-1.68471 0.95462,-1.79694 1.06679,-1.90963 1.12315,-1.96531 1.12314,-2.02166 1.17949,-1.96549 1.23536,-1.96551 1.23537,-1.90933 1.29171,-1.85319 1.34758,-1.74088 1.40393,-1.68471 1.40392,-1.5724 1.51663,-1.46009 1.51614,-1.29161 1.62837,-1.12314 1.62885,-0.95467 1.62836,-0.61773 2.02185,-0.39311 1.79692,0.16848 1.51616,0.50541 1.12315,0.89852 0.78601,1.12314 0.44934,1.29162 0.22492,1.46008 0.0558,1.51625 -0.11221,1.62855 -0.16857,1.62856 -0.11221,1.62856 -0.0563,1.62855 0.0563,1.5724 0.28078,1.51625 0.56157,1.40393 0.8987,1.23545 1.29124,1.06699 1.74106,0.73004 2.07771,0.44926 2.41486,0 1.96549,-0.28079 2.02185,-0.50541 1.90916,-0.73005 1.79693,-0.84236 1.62884,-0.95466 1.51615,-1.01083 1.34758,-1.12315 1.17949,-1.06698 1.0668,-1.1793 0.95457,-1.12314 0.8987,-1.12315 0.84236,-1.1793 0.78602,-1.1793 0.78648,-1.12314 0.78601,-1.1793 0.84236,-1.1793 0.8987,-1.1793 1.01092,-1.12314 1.12314,-1.12314 1.23537,-1.12315 1.34758,-1.12315 1.46028,-1.01082 1.57249,-0.89851 1.57202,-0.84236 1.62884,-0.61773 1.51615,-0.44926 1.74106,-0.22463 1.34758,0.11232 1.01093,0.33694 0.67379,0.44926 0.33713,0.56157 0.0559,0.61773 -0.11223,0.67389 -0.33713,0.67388 -0.393,0.67388 -0.44936,0.67389 -0.50523,0.73004 -0.44934,0.78621 -0.39301,0.89851 -0.28078,0.95467 -0.11222,1.06698 0,1.23546 0.22443,1.46009 0.44936,1.5724 0.61791,1.74087 0.78602,1.85319 0.89869,1.90934 0.89825,1.85319 0.89871,1.74086 0.89822,1.68472 0.8987,1.51625 0.84236,1.46027 0.8987,1.40392 0.84236,1.34759 0.78601,1.29171 0.84236,1.17902 0.73004,1.17948 0.73005,1.01093 0.67388,0.95458 0.56157,0.78601 0.44926,0.67426 0.33694,0.50522 0.28078,0.28079 0.11232,0.22444 0.0561,0.0563"
       inkscape:connector-curvature="0" />
    <path
       id="path3252"
       style="fill:#000000;fill-opacity:1;fill-rule:evenodd;stroke:none"
       d="m -212.33622,324.66005 c 0,3.1065 -2.51876,5.625 -5.625,5.625 -3.10625,0 -5.625,-2.5185 -5.625,-5.625 0,-3.1065 2.51875,-5.625 5.625,-5.625 3.10624,0 5.625,2.5185 5.625,5.625"
       inkscape:connector-curvature="0" />
    <path
       id="path3254"
       style="fill:none;stroke:#000000;stroke-width:0.5625;stroke-linecap:butt;stroke-linejoin:bevel;stroke-miterlimit:10;stroke-dasharray:none;stroke-opacity:1"
       d="m -212.33622,324.66005 c 0,3.1065 -2.51876,5.625 -5.625,5.625 -3.10625,0 -5.625,-2.5185 -5.625,-5.625 0,-3.1065 2.51875,-5.625 5.625,-5.625 3.10624,0 5.625,2.5185 5.625,5.625 z"
       inkscape:connector-curvature="0" />
    <path
       id="path3200"
       style="fill:#000000;fill-opacity:1;fill-rule:evenodd;stroke:none"
       d="m -125.79785,324.66005 c 0,3.1065 -2.51876,5.625 -5.625,5.625 -3.10625,0 -5.625,-2.5185 -5.625,-5.625 0,-3.1065 2.51875,-5.625 5.625,-5.625 3.10624,0 5.625,2.5185 5.625,5.625"
       inkscape:connector-curvature="0" />
    <path
       id="path3202"
       style="fill:none;stroke:#000000;stroke-width:0.5625;stroke-linecap:butt;stroke-linejoin:bevel;stroke-miterlimit:10;stroke-dasharray:none;stroke-opacity:1"
       d="m -125.79785,324.66005 c 0,3.1065 -2.51876,5.625 -5.625,5.625 -3.10625,0 -5.625,-2.5185 -5.625,-5.625 0,-3.1065 2.51875,-5.625 5.625,-5.625 3.10624,0 5.625,2.5185 5.625,5.625 z"
       inkscape:connector-curvature="0" />
    <path
       id="path3204"
       style="fill:#000000;fill-opacity:1;fill-rule:evenodd;stroke:none"
       d="m -108.25892,324.66005 c 0,3.1065 -2.51876,5.625 -5.625,5.625 -3.10626,0 -5.625,-2.5185 -5.625,-5.625 0,-3.1065 2.51874,-5.625 5.625,-5.625 3.10624,0 5.625,2.5185 5.625,5.625"
       inkscape:connector-curvature="0" />
    <path
       id="path3284"
       style="fill:none;stroke:#000000;stroke-width:1.125;stroke-linecap:butt;stroke-linejoin:miter;stroke-miterlimit:10;stroke-dasharray:none;stroke-opacity:1"
       d="m -233.3657,324.66005 119.83892,0"
       inkscape:connector-curvature="0"
       sodipodi:nodetypes="cc" />
    <path
       id="path3206"
       style="fill:none;stroke:#000000;stroke-width:0.5625;stroke-linecap:butt;stroke-linejoin:bevel;stroke-miterlimit:10;stroke-dasharray:none;stroke-opacity:1"
       d="m -108.25892,324.66005 c 0,3.1065 -2.51876,5.625 -5.625,5.625 -3.10626,0 -5.625,-2.5185 -5.625,-5.625 0,-3.1065 2.51874,-5.625 5.625,-5.625 3.10624,0 5.625,2.5185 5.625,5.625 z"
       inkscape:connector-curvature="0" />
    <text
       id="text3352-8"
       x="-239.90933"
       y="347.27579"
       style="font-size:15px">
      <tspan
         style="font-style:italic;font-variant:normal;font-size:20.00024986px;font-family:'Times New Roman';-inkscape-font-specification:Times-Italic;writing-mode:lr-tb;fill:#000000;fill-opacity:1;fill-rule:nonzero;stroke:none"
         x="-239.90933 -116.15939"
         y="347.27579"
         sodipodi:role="line"
         id="tspan3354-1">ij</tspan>
    </text>
    <text
       id="text3352-2"
       x="-223.05998"
       y="347.0972"
       style="font-size:15px">
      <tspan
         style="font-style:italic;font-variant:normal;font-size:20.00024986px;font-family:'Times New Roman';-inkscape-font-specification:Times-Italic;writing-mode:lr-tb;fill:#000000;fill-opacity:1;fill-rule:nonzero;stroke:none"
         x="-223.05998"
         y="347.0972"
         sodipodi:role="line"
         id="tspan3354-0">k</tspan>
    </text>
    <text
       id="text3352-2-0"
       x="-135.75357"
       y="347.04562"
       style="font-size:15px">
      <tspan
         style="font-style:italic;font-variant:normal;font-size:20.00024986px;font-family:'Times New Roman';-inkscape-font-specification:Times-Italic;writing-mode:lr-tb;fill:#000000;fill-opacity:1;fill-rule:nonzero;stroke:none"
         x="-135.75357"
         y="347.04562"
         sodipodi:role="line"
         id="tspan3354-0-9">l</tspan>
    </text>
    <text
       id="text3356-0"
       x="-180.91417"
       y="290.88565"
       style="font-size:15px">
      <tspan
         style="font-style:italic;font-variant:normal;font-size:24.99975014px;font-family:'Times New Roman';-inkscape-font-specification:Times-Italic;writing-mode:lr-tb;fill:#000000;fill-opacity:1;fill-rule:nonzero;stroke:none"
         x="-180.91417"
         y="290.88565"
         id="tspan3358-8">M</tspan>
    </text>
  </g>
</svg>
