<?xml version="1.0" encoding="UTF-8" standalone="no"?>
<!-- Created with Inkscape (http://www.inkscape.org/) -->

<svg
   xmlns:dc="http://purl.org/dc/elements/1.1/"
   xmlns:cc="http://creativecommons.org/ns#"
   xmlns:rdf="http://www.w3.org/1999/02/22-rdf-syntax-ns#"
   xmlns:svg="http://www.w3.org/2000/svg"
   xmlns="http://www.w3.org/2000/svg"
   xmlns:sodipodi="http://sodipodi.sourceforge.net/DTD/sodipodi-0.dtd"
   xmlns:inkscape="http://www.inkscape.org/namespaces/inkscape"
   width="84.611229mm"
   height="22.081322mm"
   viewBox="0 0 299.80357 78.240903"
   id="svg7299"
   version="1.1"
   inkscape:version="0.91 r13725"
   sodipodi:docname="decomp_ml_ml_ml.svg">
  <defs
     id="defs7301" />
  <sodipodi:namedview
     id="base"
     pagecolor="#ffffff"
     bordercolor="#666666"
     borderopacity="1.0"
     inkscape:pageopacity="0.0"
     inkscape:pageshadow="2"
     inkscape:zoom="0.83716423"
     inkscape:cx="779.82849"
     inkscape:cy="-174.58885"
     inkscape:document-units="px"
     inkscape:current-layer="layer1"
     showgrid="false"
     showguides="true"
     inkscape:guide-bbox="true"
     inkscape:window-width="1920"
     inkscape:window-height="1058"
     inkscape:window-x="1920"
     inkscape:window-y="0"
     inkscape:window-maximized="1"
     fit-margin-top="0"
     fit-margin-left="0"
     fit-margin-right="0"
     fit-margin-bottom="0">
    <sodipodi:guide
       position="235.28126,26.372897"
       orientation="0,1"
       id="guide7940" />
    <sodipodi:guide
       position="304.74554,13.337187"
       orientation="0,1"
       id="guide7978" />
    <sodipodi:guide
       position="196.17412,60.658615"
       orientation="0,1"
       id="guide8024" />
  </sodipodi:namedview>
  <metadata
     id="metadata7304">
    <rdf:RDF>
      <cc:Work
         rdf:about="">
        <dc:format>image/svg+xml</dc:format>
        <dc:type
           rdf:resource="http://purl.org/dc/dcmitype/StillImage" />
        <dc:title></dc:title>
      </cc:Work>
    </rdf:RDF>
  </metadata>
  <g
     inkscape:label="Layer 1"
     inkscape:groupmode="layer"
     id="layer1"
     transform="translate(407.78125,-273.35134)">
    <path
       id="path3036"
       style="fill:#56b4e9;fill-opacity:1;fill-rule:evenodd;stroke:none"
       d="m -401.875,324.55662 0.0752,-0.14987 0.1499,-0.30038 0.2251,-0.52487 0.4497,-0.82463 0.5249,-1.125 0.75,-1.5 0.9004,-1.72512 1.0498,-2.10013 1.2002,-2.25 1.27492,-2.39987 1.42475,-2.55038 1.5,-2.62475 1.5,-2.7 1.57525,-2.625 1.64988,-2.625 1.64987,-2.55 1.72513,-2.475 1.79975,-2.325 1.875,-2.25 1.875,-2.1 2.0255,-1.95 2.02487,-1.725 2.17475,-1.5 2.17538,-1.275 2.17475,-0.825 2.70025,-0.525 2.39987,0.225 2.02488,0.675 1.5,1.2 1.04975,1.5 0.60012,1.725 0.30038,1.95 0.0746,2.025 -0.14987,2.175 -0.22513,2.175 -0.14987,2.175 -0.0752,2.175 0.0752,2.1 0.375,2.025 0.75,1.875 1.20025,1.65 1.7245,1.425 2.32525,0.975 2.77487,0.6 3.22513,0 2.62499,-0.375 2.70026,-0.675 2.54974,-0.975 2.39988,-1.125 2.17538,-1.275 2.02487,-1.35 1.79975,-1.5 1.57525,-1.425 1.42475,-1.575 1.27487,-1.5 1.20025,-1.5 1.125,-1.575 1.04975,-1.575 1.05038,-1.5 1.04975,-1.575 1.125,-1.575 1.20025,-1.575 1.35012,-1.5 1.5,-1.5 1.64988,-1.5 1.79975,-1.5 1.95025,-1.35 2.10012,-1.2 2.0995,-1.125 2.17538,-0.825 2.02487,-0.6 2.32525,-0.3 1.79975,0.15 1.35013,0.45 0.89987,0.6 0.45025,0.75 0.0746,0.825 -0.14988,0.9 -0.45025,0.9 -0.52487,0.9 -0.60013,0.9 -0.67475,0.975 -0.60012,1.05 -0.52488,1.2 -0.375,1.275 -0.14987,1.425 0,1.65 0.29975,1.95 0.60013,2.1 0.82524,2.325 1.04976,2.475 1.20024,2.55 1.19964,2.475 1.20025,2.325 1.19962,2.25 1.20025,2.025 1.125,1.95025 1.20025,1.875 1.125,1.79975 1.04975,1.72513 1.125,1.57462 0.975,1.57525 0.975,1.35013 0.9,1.27487 0.75,1.04975 0.6,0.9005 0.44999,0.67475 0.375,0.375 0.15001,0.29975 0.075,0.0752"
       inkscape:connector-curvature="0" />
    <path
       id="path3038"
       style="fill:none;stroke:#000000;stroke-width:0.5625;stroke-linecap:butt;stroke-linejoin:bevel;stroke-miterlimit:10;stroke-dasharray:none;stroke-opacity:1"
       d="m -401.875,324.55662 0.0752,-0.14987 0.1499,-0.30038 0.2251,-0.52487 0.4497,-0.82463 0.5249,-1.125 0.75,-1.5 0.9004,-1.72512 1.0498,-2.10013 1.2002,-2.25 1.27492,-2.39987 1.42475,-2.55038 1.5,-2.62475 1.5,-2.7 1.57525,-2.625 1.64988,-2.625 1.64987,-2.55 1.72513,-2.475 1.79975,-2.325 1.875,-2.25 1.875,-2.1 2.0255,-1.95 2.02487,-1.725 2.17475,-1.5 2.17538,-1.275 2.17475,-0.825 2.70025,-0.525 2.39987,0.225 2.02488,0.675 1.5,1.2 1.04975,1.5 0.60012,1.725 0.30038,1.95 0.0746,2.025 -0.14987,2.175 -0.22513,2.175 -0.14987,2.175 -0.0752,2.175 0.0752,2.1 0.375,2.025 0.75,1.875 1.20025,1.65 1.7245,1.425 2.32525,0.975 2.77487,0.6 3.22513,0 2.62499,-0.375 2.70026,-0.675 2.54974,-0.975 2.39988,-1.125 2.17538,-1.275 2.02487,-1.35 1.79975,-1.5 1.57525,-1.425 1.42475,-1.575 1.27487,-1.5 1.20025,-1.5 1.125,-1.575 1.04975,-1.575 1.05038,-1.5 1.04975,-1.575 1.125,-1.575 1.20025,-1.575 1.35012,-1.5 1.5,-1.5 1.64988,-1.5 1.79975,-1.5 1.95025,-1.35 2.10012,-1.2 2.0995,-1.125 2.17538,-0.825 2.02487,-0.6 2.32525,-0.3 1.79975,0.15 1.35013,0.45 0.89987,0.6 0.45025,0.75 0.0746,0.825 -0.14988,0.9 -0.45025,0.9 -0.52487,0.9 -0.60013,0.9 -0.67475,0.975 -0.60012,1.05 -0.52488,1.2 -0.375,1.275 -0.14987,1.425 0,1.65 0.29975,1.95 0.60013,2.1 0.82524,2.325 1.04976,2.475 1.20024,2.55 1.19964,2.475 1.20025,2.325 1.19962,2.25 1.20025,2.025 1.125,1.95025 1.20025,1.875 1.125,1.79975 1.04975,1.72513 1.125,1.57462 0.975,1.57525 0.975,1.35013 0.9,1.27487 0.75,1.04975 0.6,0.9005 0.44999,0.67475 0.375,0.375 0.15001,0.29975 0.075,0.0752"
       inkscape:connector-curvature="0" />
    <path
       id="path3160"
       style="fill:#000000;fill-opacity:1;fill-rule:evenodd;stroke:none"
       d="m -396.25,324.55662 c 0,3.1065 -2.51855,5.625 -5.625,5.625 -3.10645,0 -5.625,-2.5185 -5.625,-5.625 0,-3.1065 2.51855,-5.625 5.625,-5.625 3.10645,0 5.625,2.5185 5.625,5.625"
       inkscape:connector-curvature="0" />
    <path
       id="path3162"
       style="fill:none;stroke:#000000;stroke-width:0.5625;stroke-linecap:butt;stroke-linejoin:bevel;stroke-miterlimit:10;stroke-dasharray:none;stroke-opacity:1"
       d="m -396.25,324.55662 c 0,3.1065 -2.51855,5.625 -5.625,5.625 -3.10645,0 -5.625,-2.5185 -5.625,-5.625 0,-3.1065 2.51855,-5.625 5.625,-5.625 3.10645,0 5.625,2.5185 5.625,5.625 z"
       inkscape:connector-curvature="0" />
    <path
       id="path3164"
       style="fill:#000000;fill-opacity:1;fill-rule:evenodd;stroke:none"
       d="m -272.5,324.55662 c 0,3.1065 -2.51876,5.625 -5.625,5.625 -3.10625,0 -5.625,-2.5185 -5.625,-5.625 0,-3.1065 2.51875,-5.625 5.625,-5.625 3.10624,0 5.625,2.5185 5.625,5.625"
       inkscape:connector-curvature="0" />
    <path
       id="path3166"
       style="fill:none;stroke:#000000;stroke-width:0.5625;stroke-linecap:butt;stroke-linejoin:bevel;stroke-miterlimit:10;stroke-dasharray:none;stroke-opacity:1"
       d="m -272.5,324.55662 c 0,3.1065 -2.51876,5.625 -5.625,5.625 -3.10625,0 -5.625,-2.5185 -5.625,-5.625 0,-3.1065 2.51875,-5.625 5.625,-5.625 3.10624,0 5.625,2.5185 5.625,5.625 z"
       inkscape:connector-curvature="0" />
    <path
       id="path3286"
       style="fill:none;stroke:#000000;stroke-width:1.125;stroke-linecap:butt;stroke-linejoin:miter;stroke-miterlimit:10;stroke-dasharray:none;stroke-opacity:1"
       d="m -401.875,324.55662 123.75,0"
       inkscape:connector-curvature="0" />
    <text
       id="text3352"
       x="-401.87518"
       y="347.05661"
       style="font-size:15px">
      <tspan
         style="font-style:italic;font-variant:normal;font-size:20.00024986px;font-family:'Times New Roman';-inkscape-font-specification:Times-Italic;writing-mode:lr-tb;fill:#000000;fill-opacity:1;fill-rule:nonzero;stroke:none"
         x="-401.87518 -278.12524"
         y="347.05661"
         sodipodi:role="line"
         id="tspan3354">ij</tspan>
    </text>
    <text
       id="text3356"
       x="-351.25018"
       y="290.80661"
       style="font-size:15px">
      <tspan
         style="font-style:italic;font-variant:normal;font-size:24.99975014px;font-family:'Times New Roman';-inkscape-font-specification:Times-Italic;writing-mode:lr-tb;fill:#000000;fill-opacity:1;fill-rule:nonzero;stroke:none"
         x="-351.25018"
         y="290.80661"
         id="tspan3358">M</tspan>
    </text>
    <text
       xml:space="preserve"
       style="font-style:normal;font-variant:normal;font-weight:normal;font-stretch:normal;font-size:10px;line-height:125%;font-family:Arial;-inkscape-font-specification:Arial;text-align:start;letter-spacing:0px;word-spacing:0px;writing-mode:lr-tb;text-anchor:start;fill:#000000;fill-opacity:1;stroke:none;stroke-width:1px;stroke-linecap:butt;stroke-linejoin:miter;stroke-opacity:1"
       x="-262.85715"
       y="311.64792"
       id="text7873"
       sodipodi:linespacing="125%"><tspan
         sodipodi:role="line"
         id="tspan7875"
         x="-262.85715"
         y="311.64792"
         style="font-size:25px">=</tspan></text>
    <path
       id="path3040"
       style="fill:#56b4e9;fill-opacity:1;fill-rule:evenodd;stroke:none"
       d="m -233.32975,324.64677 0.0842,-0.22498 0.0842,-0.44932 0.16832,-0.8247 0.25249,-1.27402 0.33664,-1.64878 0.50497,-1.94895 0.50497,-2.32369 0.58913,-2.39827 0.67329,-2.62325 0.67329,-2.62325 0.67331,-2.54817 0.84161,-2.5483 0.84162,-2.3984 0.84161,-2.2485 0.92578,-2.09859 1.0941,-1.87375 1.0941,-1.57395 1.17826,-1.27415 1.26242,-0.82445 1.34658,-0.2998 1.26242,0.2998 1.00994,0.82445 0.75746,1.1992 0.50496,1.499 0.25249,1.6489 0.16832,1.79879 0,1.87375 -0.0842,1.9487 0,1.87375 0.0842,1.9487 0.16833,1.79879 0.4208,1.72373 0.67329,1.5742 1.00994,1.27402 1.34657,0.97448 1.68323,0.52452 2.01989,0 1.93571,-0.52452 1.93572,-0.89928 1.76739,-1.27465 1.59907,-1.57357 1.43074,-1.64878 1.26242,-1.79904 1.0941,-1.87375 0.92578,-1.9487 0.92578,-1.9487 0.84161,-1.9487 0.75745,-1.94869 0.84162,-1.9487 0.92578,-1.7988 1.00993,-1.7988 1.0941,-1.6489 1.26242,-1.42405 1.34659,-1.19919 1.43073,-0.82445 1.51492,-0.2998 1.34658,0.22485 1.00993,0.7495 0.84161,1.27414 0.58913,1.57395 0.42081,1.87375 0.25249,2.0986 0.16832,2.32345 0,2.47334 -0.16832,2.5483 -0.16832,2.6982 -0.25249,2.77315 -0.33665,2.77289 -0.33664,2.77365 -0.33665,2.69783 -0.42081,2.47347 -0.33664,2.24849 -0.25249,1.87375 -0.25248,1.5742 -0.16832,1.12425 -0.16833,0.82408 -0.0842,0.37475 0,0.22497"
       inkscape:connector-curvature="0" />
    <path
       id="path3042"
       style="fill:none;stroke:#000000;stroke-width:0.595667;stroke-linecap:butt;stroke-linejoin:bevel;stroke-miterlimit:10;stroke-dasharray:none;stroke-opacity:1"
       d="m -233.32975,324.64677 0.0842,-0.22498 0.0842,-0.44932 0.16832,-0.8247 0.25249,-1.27402 0.33664,-1.64878 0.50497,-1.94895 0.50497,-2.32369 0.58913,-2.39827 0.67329,-2.62325 0.67329,-2.62325 0.67331,-2.54817 0.84161,-2.5483 0.84162,-2.3984 0.84161,-2.2485 0.92578,-2.09859 1.0941,-1.87375 1.0941,-1.57395 1.17826,-1.27415 1.26242,-0.82445 1.34658,-0.2998 1.26242,0.2998 1.00994,0.82445 0.75746,1.1992 0.50496,1.499 0.25249,1.6489 0.16832,1.79879 0,1.87375 -0.0842,1.9487 0,1.87375 0.0842,1.9487 0.16833,1.79879 0.4208,1.72373 0.67329,1.5742 1.00994,1.27402 1.34657,0.97448 1.68323,0.52452 2.01989,0 1.93571,-0.52452 1.93572,-0.89928 1.76739,-1.27465 1.59907,-1.57357 1.43074,-1.64878 1.26242,-1.79904 1.0941,-1.87375 0.92578,-1.9487 0.92578,-1.9487 0.84161,-1.9487 0.75745,-1.94869 0.84162,-1.9487 0.92578,-1.7988 1.00993,-1.7988 1.0941,-1.6489 1.26242,-1.42405 1.34659,-1.19919 1.43073,-0.82445 1.51492,-0.2998 1.34658,0.22485 1.00993,0.7495 0.84161,1.27414 0.58913,1.57395 0.42081,1.87375 0.25249,2.0986 0.16832,2.32345 0,2.47334 -0.16832,2.5483 -0.16832,2.6982 -0.25249,2.77315 -0.33665,2.77289 -0.33664,2.77365 -0.33665,2.69783 -0.42081,2.47347 -0.33664,2.24849 -0.25249,1.87375 -0.25248,1.5742 -0.16832,1.12425 -0.16833,0.82408 -0.0842,0.37475 0,0.22497"
       inkscape:connector-curvature="0" />
    <path
       id="path3196"
       style="fill:#000000;fill-opacity:1;fill-rule:evenodd;stroke:none"
       d="m -228.34821,324.66005 c 0,3.1065 -2.51876,5.625 -5.625,5.625 -3.10625,0 -5.625,-2.5185 -5.625,-5.625 0,-3.1065 2.51875,-5.625 5.625,-5.625 3.10624,0 5.625,2.5185 5.625,5.625"
       inkscape:connector-curvature="0" />
    <path
       id="path3198"
       style="fill:none;stroke:#000000;stroke-width:0.5625;stroke-linecap:butt;stroke-linejoin:bevel;stroke-miterlimit:10;stroke-dasharray:none;stroke-opacity:1"
       d="m -228.34821,324.66005 c 0,3.1065 -2.51876,5.625 -5.625,5.625 -3.10625,0 -5.625,-2.5185 -5.625,-5.625 0,-3.1065 2.51875,-5.625 5.625,-5.625 3.10624,0 5.625,2.5185 5.625,5.625 z"
       inkscape:connector-curvature="0" />
    <path
       id="path3252"
       style="fill:#000000;fill-opacity:1;fill-rule:evenodd;stroke:none"
       d="m -177.09821,324.66005 c 0,3.1065 -2.51876,5.625 -5.625,5.625 -3.10625,0 -5.625,-2.5185 -5.625,-5.625 0,-3.1065 2.51875,-5.625 5.625,-5.625 3.10624,0 5.625,2.5185 5.625,5.625"
       inkscape:connector-curvature="0" />
    <path
       id="path3254"
       style="fill:none;stroke:#000000;stroke-width:0.5625;stroke-linecap:butt;stroke-linejoin:bevel;stroke-miterlimit:10;stroke-dasharray:none;stroke-opacity:1"
       d="m -177.09821,324.66005 c 0,3.1065 -2.51876,5.625 -5.625,5.625 -3.10625,0 -5.625,-2.5185 -5.625,-5.625 0,-3.1065 2.51875,-5.625 5.625,-5.625 3.10624,0 5.625,2.5185 5.625,5.625 z"
       inkscape:connector-curvature="0" />
    <path
       id="path3302"
       style="fill:none;stroke:#000000;stroke-width:1.125;stroke-linecap:butt;stroke-linejoin:miter;stroke-miterlimit:10;stroke-dasharray:none;stroke-opacity:1"
       d="m -233.97321,324.66005 56.25,0"
       inkscape:connector-curvature="0" />
    <path
       id="path3040-0"
       style="fill:#56b4e9;fill-opacity:1;fill-rule:evenodd;stroke:none"
       d="m -164.2205,324.74367 0.0842,-0.22498 0.0842,-0.44932 0.16832,-0.8247 0.25249,-1.27402 0.33664,-1.64878 0.50497,-1.94895 0.50497,-2.32369 0.58913,-2.39827 0.67329,-2.62325 0.67329,-2.62325 0.67331,-2.54817 0.84161,-2.5483 0.84162,-2.3984 0.84161,-2.2485 0.92578,-2.09859 1.0941,-1.87375 1.0941,-1.57395 1.17826,-1.27415 1.26242,-0.82445 1.34658,-0.2998 1.26242,0.2998 1.00994,0.82445 0.75746,1.1992 0.50496,1.499 0.25249,1.6489 0.16832,1.79879 0,1.87375 -0.0842,1.9487 0,1.87375 0.0842,1.9487 0.16833,1.79879 0.4208,1.72373 0.67329,1.5742 1.00994,1.27402 1.34657,0.97448 1.68323,0.52452 2.01989,0 1.93571,-0.52452 1.93572,-0.89928 1.76739,-1.27465 1.59907,-1.57357 1.43074,-1.64878 1.26242,-1.79904 1.0941,-1.87375 0.92578,-1.9487 0.92578,-1.9487 0.84161,-1.9487 0.75745,-1.94869 0.84162,-1.9487 0.92578,-1.7988 1.00993,-1.7988 1.0941,-1.6489 1.26242,-1.42405 1.34659,-1.19919 1.43073,-0.82445 1.51492,-0.2998 1.34658,0.22485 1.00993,0.7495 0.84161,1.27414 0.58913,1.57395 0.42081,1.87375 0.25249,2.0986 0.16832,2.32345 0,2.47334 -0.16832,2.5483 -0.16832,2.6982 -0.25249,2.77315 -0.33665,2.77289 -0.33664,2.77365 -0.33665,2.69783 -0.42081,2.47347 -0.33664,2.24849 -0.25249,1.87375 -0.25248,1.5742 -0.16832,1.12425 -0.16833,0.82408 -0.0842,0.37475 0,0.22497"
       inkscape:connector-curvature="0" />
    <path
       id="path3042-1"
       style="fill:none;stroke:#000000;stroke-width:0.595667;stroke-linecap:butt;stroke-linejoin:bevel;stroke-miterlimit:10;stroke-dasharray:none;stroke-opacity:1"
       d="m -164.2205,324.74367 0.0842,-0.22498 0.0842,-0.44932 0.16832,-0.8247 0.25249,-1.27402 0.33664,-1.64878 0.50497,-1.94895 0.50497,-2.32369 0.58913,-2.39827 0.67329,-2.62325 0.67329,-2.62325 0.67331,-2.54817 0.84161,-2.5483 0.84162,-2.3984 0.84161,-2.2485 0.92578,-2.09859 1.0941,-1.87375 1.0941,-1.57395 1.17826,-1.27415 1.26242,-0.82445 1.34658,-0.2998 1.26242,0.2998 1.00994,0.82445 0.75746,1.1992 0.50496,1.499 0.25249,1.6489 0.16832,1.79879 0,1.87375 -0.0842,1.9487 0,1.87375 0.0842,1.9487 0.16833,1.79879 0.4208,1.72373 0.67329,1.5742 1.00994,1.27402 1.34657,0.97448 1.68323,0.52452 2.01989,0 1.93571,-0.52452 1.93572,-0.89928 1.76739,-1.27465 1.59907,-1.57357 1.43074,-1.64878 1.26242,-1.79904 1.0941,-1.87375 0.92578,-1.9487 0.92578,-1.9487 0.84161,-1.9487 0.75745,-1.94869 0.84162,-1.9487 0.92578,-1.7988 1.00993,-1.7988 1.0941,-1.6489 1.26242,-1.42405 1.34659,-1.19919 1.43073,-0.82445 1.51492,-0.2998 1.34658,0.22485 1.00993,0.7495 0.84161,1.27414 0.58913,1.57395 0.42081,1.87375 0.25249,2.0986 0.16832,2.32345 0,2.47334 -0.16832,2.5483 -0.16832,2.6982 -0.25249,2.77315 -0.33665,2.77289 -0.33664,2.77365 -0.33665,2.69783 -0.42081,2.47347 -0.33664,2.24849 -0.25249,1.87375 -0.25248,1.5742 -0.16832,1.12425 -0.16833,0.82408 -0.0842,0.37475 0,0.22497"
       inkscape:connector-curvature="0" />
    <path
       id="path3200"
       style="fill:#000000;fill-opacity:1;fill-rule:evenodd;stroke:none"
       d="m -158.34821,324.66005 c 0,3.1065 -2.51876,5.625 -5.625,5.625 -3.10625,0 -5.625,-2.5185 -5.625,-5.625 0,-3.1065 2.51875,-5.625 5.625,-5.625 3.10624,0 5.625,2.5185 5.625,5.625"
       inkscape:connector-curvature="0" />
    <path
       id="path3202"
       style="fill:none;stroke:#000000;stroke-width:0.5625;stroke-linecap:butt;stroke-linejoin:bevel;stroke-miterlimit:10;stroke-dasharray:none;stroke-opacity:1"
       d="m -158.34821,324.66005 c 0,3.1065 -2.51876,5.625 -5.625,5.625 -3.10625,0 -5.625,-2.5185 -5.625,-5.625 0,-3.1065 2.51875,-5.625 5.625,-5.625 3.10624,0 5.625,2.5185 5.625,5.625 z"
       inkscape:connector-curvature="0" />
    <path
       id="path3204"
       style="fill:#000000;fill-opacity:1;fill-rule:evenodd;stroke:none"
       d="m -108.25892,324.66005 c 0,3.1065 -2.51876,5.625 -5.625,5.625 -3.10626,0 -5.625,-2.5185 -5.625,-5.625 0,-3.1065 2.51874,-5.625 5.625,-5.625 3.10624,0 5.625,2.5185 5.625,5.625"
       inkscape:connector-curvature="0" />
    <path
       id="path3284"
       style="fill:none;stroke:#000000;stroke-width:1.125;stroke-linecap:butt;stroke-linejoin:miter;stroke-miterlimit:10;stroke-dasharray:none;stroke-opacity:1"
       d="m -166.47321,324.66005 52.94643,0"
       inkscape:connector-curvature="0"
       sodipodi:nodetypes="cc" />
    <path
       id="path3206"
       style="fill:none;stroke:#000000;stroke-width:0.5625;stroke-linecap:butt;stroke-linejoin:bevel;stroke-miterlimit:10;stroke-dasharray:none;stroke-opacity:1"
       d="m -108.25892,324.66005 c 0,3.1065 -2.51876,5.625 -5.625,5.625 -3.10626,0 -5.625,-2.5185 -5.625,-5.625 0,-3.1065 2.51874,-5.625 5.625,-5.625 3.10624,0 5.625,2.5185 5.625,5.625 z"
       inkscape:connector-curvature="0" />
    <text
       id="text3352-8"
       x="-239.90933"
       y="347.27579"
       style="font-size:15px">
      <tspan
         style="font-style:italic;font-variant:normal;font-size:20.00024986px;font-family:'Times New Roman';-inkscape-font-specification:Times-Italic;writing-mode:lr-tb;fill:#000000;fill-opacity:1;fill-rule:nonzero;stroke:none"
         x="-239.90933 -116.15939"
         y="347.27579"
         sodipodi:role="line"
         id="tspan3354-1">ij</tspan>
    </text>
    <text
       id="text3352-2"
       x="-189.01648"
       y="347.0972"
       style="font-size:15px">
      <tspan
         style="font-style:italic;font-variant:normal;font-size:20.00024986px;font-family:'Times New Roman';-inkscape-font-specification:Times-Italic;writing-mode:lr-tb;fill:#000000;fill-opacity:1;fill-rule:nonzero;stroke:none"
         x="-189.01648"
         y="347.0972"
         sodipodi:role="line"
         id="tspan3354-0">k</tspan>
    </text>
    <text
       id="text3352-2-0"
       x="-169.79707"
       y="347.04562"
       style="font-size:15px">
      <tspan
         style="font-style:italic;font-variant:normal;font-size:20.00024986px;font-family:'Times New Roman';-inkscape-font-specification:Times-Italic;writing-mode:lr-tb;fill:#000000;fill-opacity:1;fill-rule:nonzero;stroke:none"
         x="-169.79707"
         y="347.04562"
         sodipodi:role="line"
         id="tspan3354-0-9">l</tspan>
    </text>
    <text
       id="text3356-6"
       x="-213.10309"
       y="290.81705"
       style="font-size:15px">
      <tspan
         style="font-style:italic;font-variant:normal;font-size:24.99975014px;font-family:'Times New Roman';-inkscape-font-specification:Times-Italic;writing-mode:lr-tb;fill:#000000;fill-opacity:1;fill-rule:nonzero;stroke:none"
         x="-213.10309"
         y="290.81705"
         id="tspan3358-9">M</tspan>
    </text>
    <text
       id="text3356-6-0"
       x="-143.10309"
       y="290.81705"
       style="font-size:15px">
      <tspan
         style="font-style:italic;font-variant:normal;font-size:24.99975014px;font-family:'Times New Roman';-inkscape-font-specification:Times-Italic;writing-mode:lr-tb;fill:#000000;fill-opacity:1;fill-rule:nonzero;stroke:none"
         x="-143.10309"
         y="290.81705"
         id="tspan3358-9-7">M</tspan>
    </text>
  </g>
</svg>
