<?xml version="1.0" encoding="UTF-8" standalone="no"?>
<!-- Created with Inkscape (http://www.inkscape.org/) -->

<svg
   xmlns:dc="http://purl.org/dc/elements/1.1/"
   xmlns:cc="http://creativecommons.org/ns#"
   xmlns:rdf="http://www.w3.org/1999/02/22-rdf-syntax-ns#"
   xmlns:svg="http://www.w3.org/2000/svg"
   xmlns="http://www.w3.org/2000/svg"
   xmlns:sodipodi="http://sodipodi.sourceforge.net/DTD/sodipodi-0.dtd"
   xmlns:inkscape="http://www.inkscape.org/namespaces/inkscape"
   width="38.258751mm"
   height="20.51507mm"
   viewBox="0 0 135.5625 72.691192"
   id="svg5107"
   version="1.1"
   inkscape:version="0.91 r13725"
   sodipodi:docname="decomp_il.svg">
  <defs
     id="defs5109" />
  <sodipodi:namedview
     id="base"
     pagecolor="#ffffff"
     bordercolor="#666666"
     borderopacity="1.0"
     inkscape:pageopacity="0.0"
     inkscape:pageshadow="2"
     inkscape:zoom="10.563393"
     inkscape:cx="67.781252"
     inkscape:cy="36.345596"
     inkscape:document-units="px"
     inkscape:current-layer="layer1"
     showgrid="false"
     fit-margin-top="0"
     fit-margin-left="0"
     fit-margin-right="0"
     fit-margin-bottom="0"
     inkscape:window-width="1920"
     inkscape:window-height="1058"
     inkscape:window-x="1920"
     inkscape:window-y="0"
     inkscape:window-maximized="1" />
  <metadata
     id="metadata5112">
    <rdf:RDF>
      <cc:Work
         rdf:about="">
        <dc:format>image/svg+xml</dc:format>
        <dc:type
           rdf:resource="http://purl.org/dc/dcmitype/StillImage" />
        <dc:title></dc:title>
      </cc:Work>
    </rdf:RDF>
  </metadata>
  <g
     inkscape:label="Layer 1"
     inkscape:groupmode="layer"
     id="layer1"
     transform="translate(-217.93303,-64.588034)">
    <path
       id="path3070"
       style="fill:none;stroke:#000000;stroke-width:1.125;stroke-linecap:butt;stroke-linejoin:bevel;stroke-miterlimit:10;stroke-dasharray:none;stroke-opacity:1"
       d="m 223.83552,110.39678 c 8.57376,-26.946246 33.60125,-45.246246 61.87876,-45.246246 28.27749,0 53.305,18.3 61.87874,45.246246"
       inkscape:connector-curvature="0" />
    <path
       id="path3084"
       style="fill:#00d100;fill-opacity:1;fill-rule:evenodd;stroke:none"
       d="m 257.58928,110.39803 c 1.01999,-14.781247 13.30874,-26.249996 28.125,-26.249996 14.81625,0 27.105,11.468749 28.125,26.249996"
       inkscape:connector-curvature="0" />
    <path
       id="path3086"
       style="fill:#e69f00;fill-opacity:1;stroke:#000000;stroke-width:0.5625;stroke-linecap:butt;stroke-linejoin:bevel;stroke-miterlimit:10;stroke-dasharray:none;stroke-opacity:1"
       d="m 257.58928,110.39803 c 1.01999,-14.781247 13.30874,-26.249996 28.125,-26.249996 14.81625,0 27.105,11.468749 28.125,26.249996"
       inkscape:connector-curvature="0" />
    <path
       id="path3120"
       style="fill:#000000;fill-opacity:1;fill-rule:evenodd;stroke:none"
       d="m 229.46428,110.39803 c 0,3.10625 -2.51876,5.625 -5.625,5.625 -3.10625,0 -5.625,-2.51875 -5.625,-5.625 0,-3.10625 2.51875,-5.625 5.625,-5.625 3.10624,0 5.625,2.51875 5.625,5.625"
       inkscape:connector-curvature="0" />
    <path
       id="path3122"
       style="fill:none;stroke:#000000;stroke-width:0.5625;stroke-linecap:butt;stroke-linejoin:bevel;stroke-miterlimit:10;stroke-dasharray:none;stroke-opacity:1"
       d="m 229.46428,110.39803 c 0,3.10625 -2.51876,5.625 -5.625,5.625 -3.10625,0 -5.625,-2.51875 -5.625,-5.625 0,-3.10625 2.51875,-5.625 5.625,-5.625 3.10624,0 5.625,2.51875 5.625,5.625 z"
       inkscape:connector-curvature="0" />
    <path
       id="path3124"
       style="fill:#000000;fill-opacity:1;fill-rule:evenodd;stroke:none"
       d="m 353.21428,110.39803 c 0,3.10625 -2.51876,5.625 -5.625,5.625 -3.10626,0 -5.625,-2.51875 -5.625,-5.625 0,-3.10625 2.51874,-5.625 5.625,-5.625 3.10624,0 5.625,2.51875 5.625,5.625"
       inkscape:connector-curvature="0" />
    <path
       id="path3126"
       style="fill:none;stroke:#000000;stroke-width:0.5625;stroke-linecap:butt;stroke-linejoin:bevel;stroke-miterlimit:10;stroke-dasharray:none;stroke-opacity:1"
       d="m 353.21428,110.39803 c 0,3.10625 -2.51876,5.625 -5.625,5.625 -3.10626,0 -5.625,-2.51875 -5.625,-5.625 0,-3.10625 2.51874,-5.625 5.625,-5.625 3.10624,0 5.625,2.51875 5.625,5.625 z"
       inkscape:connector-curvature="0" />
    <path
       id="path3128"
       style="fill:#000000;fill-opacity:1;fill-rule:evenodd;stroke:none"
       d="m 263.21428,110.39803 c 0,3.10625 -2.51876,5.625 -5.625,5.625 -3.10625,0 -5.625,-2.51875 -5.625,-5.625 0,-3.10625 2.51875,-5.625 5.625,-5.625 3.10624,0 5.625,2.51875 5.625,5.625"
       inkscape:connector-curvature="0" />
    <path
       id="path3130"
       style="fill:none;stroke:#000000;stroke-width:0.5625;stroke-linecap:butt;stroke-linejoin:bevel;stroke-miterlimit:10;stroke-dasharray:none;stroke-opacity:1"
       d="m 263.21428,110.39803 c 0,3.10625 -2.51876,5.625 -5.625,5.625 -3.10625,0 -5.625,-2.51875 -5.625,-5.625 0,-3.10625 2.51875,-5.625 5.625,-5.625 3.10624,0 5.625,2.51875 5.625,5.625 z"
       inkscape:connector-curvature="0" />
    <path
       id="path3132"
       style="fill:#000000;fill-opacity:1;fill-rule:evenodd;stroke:none"
       d="m 319.46428,110.39803 c 0,3.10625 -2.51876,5.625 -5.625,5.625 -3.10625,0 -5.625,-2.51875 -5.625,-5.625 0,-3.10625 2.51875,-5.625 5.625,-5.625 3.10624,0 5.625,2.51875 5.625,5.625"
       inkscape:connector-curvature="0" />
    <path
       id="path3134"
       style="fill:none;stroke:#000000;stroke-width:0.5625;stroke-linecap:butt;stroke-linejoin:bevel;stroke-miterlimit:10;stroke-dasharray:none;stroke-opacity:1"
       d="m 319.46428,110.39803 c 0,3.10625 -2.51876,5.625 -5.625,5.625 -3.10625,0 -5.625,-2.51875 -5.625,-5.625 0,-3.10625 2.51875,-5.625 5.625,-5.625 3.10624,0 5.625,2.51875 5.625,5.625 z"
       inkscape:connector-curvature="0" />
    <path
       id="path3294"
       style="fill:none;stroke:#000000;stroke-width:1.125;stroke-linecap:butt;stroke-linejoin:miter;stroke-miterlimit:10;stroke-dasharray:none;stroke-opacity:1"
       d="m 257.58928,110.39803 56.25,0"
       inkscape:connector-curvature="0" />
    <path
       id="path3308"
       style="fill:none;stroke:#000000;stroke-width:3.375;stroke-linecap:butt;stroke-linejoin:miter;stroke-miterlimit:10;stroke-dasharray:1.125, 3.975;stroke-dashoffset:3.9749999;stroke-opacity:1"
       d="m 313.83928,110.39803 33.75,0"
       inkscape:connector-curvature="0" />
    <path
       id="path3310"
       style="fill:none;stroke:#000000;stroke-width:3.375;stroke-linecap:butt;stroke-linejoin:miter;stroke-miterlimit:10;stroke-dasharray:1.125, 3.975;stroke-dashoffset:3.9749999;stroke-opacity:1"
       d="m 223.83928,110.39803 33.75,0"
       inkscape:connector-curvature="0" />
    <text
       id="text3330"
       x="277.37674"
       y="104.77302"
       style="font-size:15px">
      <tspan
         style="font-style:italic;font-variant:normal;font-size:24.99975014px;font-family:'Times New Roman';-inkscape-font-specification:Times-Italic;writing-mode:lr-tb;fill:#000000;fill-opacity:1;fill-rule:nonzero;stroke:none"
         x="277.37674"
         y="104.77302"
         id="tspan3332">C</tspan>
    </text>
    <text
       id="text3334"
       x="262.79526"
       y="82.27301"
       style="font-size:15px">
      <tspan
         style="font-variant:normal;font-weight:normal;font-size:15px;font-family:Helvetica;-inkscape-font-specification:Helvetica;writing-mode:lr-tb;fill:#000000;fill-opacity:1;fill-rule:nonzero;stroke:none"
         x="262.79526 266.12527 274.4653 278.63528 286.97525 291.97031 295.30026 303.64029"
         y="82.27301"
         sodipodi:role="line"
         id="tspan3336">interior</tspan>
    </text>
    <text
       id="text3388-6"
       x="220.01309"
       y="132.96277"
       style="font-size:15px">
      <tspan
         style="font-style:italic;font-variant:normal;font-size:20.00024986px;font-family:'Times New Roman';-inkscape-font-specification:Times-Italic;writing-mode:lr-tb;fill:#000000;fill-opacity:1;fill-rule:nonzero;stroke:none"
         x="220.01309 343.76306"
         y="132.96277"
         sodipodi:role="line"
         id="tspan3390-6">ij</tspan>
    </text>
    <text
       id="text3388-3"
       x="308.37186"
       y="132.96277"
       style="font-size:15px">
      <tspan
         style="font-style:italic;font-variant:normal;font-size:20.00024986px;font-family:'Times New Roman';-inkscape-font-specification:Times-Italic;writing-mode:lr-tb;fill:#000000;fill-opacity:1;fill-rule:nonzero;stroke:none"
         sodipodi:role="line"
         id="tspan3390-2"
         x="308.37186"
         y="132.96277">l</tspan>
    </text>
    <text
       id="text3388-3-1"
       x="251.91"
       y="132.99091"
       style="font-size:15px">
      <tspan
         style="font-style:italic;font-variant:normal;font-size:20.00024986px;font-family:'Times New Roman';-inkscape-font-specification:Times-Italic;writing-mode:lr-tb;fill:#000000;fill-opacity:1;fill-rule:nonzero;stroke:none"
         sodipodi:role="line"
         id="tspan3390-2-4"
         x="251.91"
         y="132.99091">k</tspan>
    </text>
  </g>
</svg>
