<?xml version="1.0" encoding="UTF-8" standalone="no"?>
<!-- Created with Inkscape (http://www.inkscape.org/) -->

<svg
   xmlns:dc="http://purl.org/dc/elements/1.1/"
   xmlns:cc="http://creativecommons.org/ns#"
   xmlns:rdf="http://www.w3.org/1999/02/22-rdf-syntax-ns#"
   xmlns:svg="http://www.w3.org/2000/svg"
   xmlns="http://www.w3.org/2000/svg"
   xmlns:sodipodi="http://sodipodi.sourceforge.net/DTD/sodipodi-0.dtd"
   xmlns:inkscape="http://www.inkscape.org/namespaces/inkscape"
   width="38.258747mm"
   height="20.496794mm"
   viewBox="0 0 135.56249 72.626434"
   id="svg4397"
   version="1.1"
   inkscape:version="0.91 r13725"
   sodipodi:docname="decomp_hp.svg">
  <defs
     id="defs4399" />
  <sodipodi:namedview
     id="base"
     pagecolor="#ffffff"
     bordercolor="#666666"
     borderopacity="1.0"
     inkscape:pageopacity="0.0"
     inkscape:pageshadow="2"
     inkscape:zoom="10.563394"
     inkscape:cx="67.781245"
     inkscape:cy="36.313217"
     inkscape:document-units="px"
     inkscape:current-layer="layer1"
     showgrid="false"
     fit-margin-top="0"
     fit-margin-left="0"
     fit-margin-right="0"
     fit-margin-bottom="0"
     inkscape:window-width="1920"
     inkscape:window-height="1058"
     inkscape:window-x="1920"
     inkscape:window-y="0"
     inkscape:window-maximized="1" />
  <metadata
     id="metadata4402">
    <rdf:RDF>
      <cc:Work
         rdf:about="">
        <dc:format>image/svg+xml</dc:format>
        <dc:type
           rdf:resource="http://purl.org/dc/dcmitype/StillImage" />
        <dc:title></dc:title>
      </cc:Work>
    </rdf:RDF>
  </metadata>
  <g
     inkscape:label="Layer 1"
     inkscape:groupmode="layer"
     id="layer1"
     transform="translate(-132.21876,-107.47756)">
    <path
       id="path3072"
       style="fill:none;stroke:#000000;stroke-width:1.125;stroke-linecap:butt;stroke-linejoin:bevel;stroke-miterlimit:10;stroke-dasharray:none;stroke-opacity:1"
       d="m 138.12121,153.28631 c 8.5738,-26.94625 33.6013,-45.24625 61.8788,-45.24625 28.2775,0 53.305,18.3 61.87873,45.24625"
       inkscape:connector-curvature="0" />
    <path
       id="path3208"
       style="fill:#000000;fill-opacity:1;fill-rule:evenodd;stroke:none"
       d="m 143.75001,153.28756 c 0,3.10625 -2.5188,5.625 -5.625,5.625 -3.1063,0 -5.625,-2.51875 -5.625,-5.625 0,-3.10625 2.5187,-5.625 5.625,-5.625 3.1062,0 5.625,2.51875 5.625,5.625"
       inkscape:connector-curvature="0" />
    <path
       id="path3210"
       style="fill:none;stroke:#000000;stroke-width:0.5625;stroke-linecap:butt;stroke-linejoin:bevel;stroke-miterlimit:10;stroke-dasharray:none;stroke-opacity:1"
       d="m 143.75001,153.28756 c 0,3.10625 -2.5188,5.625 -5.625,5.625 -3.1063,0 -5.625,-2.51875 -5.625,-5.625 0,-3.10625 2.5187,-5.625 5.625,-5.625 3.1062,0 5.625,2.51875 5.625,5.625 z"
       inkscape:connector-curvature="0" />
    <path
       id="path3212"
       style="fill:#000000;fill-opacity:1;fill-rule:evenodd;stroke:none"
       d="m 267.5,153.28756 c 0,3.10625 -2.51876,5.625 -5.625,5.625 -3.10625,0 -5.625,-2.51875 -5.625,-5.625 0,-3.10625 2.51875,-5.625 5.625,-5.625 3.10624,0 5.625,2.51875 5.625,5.625"
       inkscape:connector-curvature="0" />
    <path
       id="path3214"
       style="fill:none;stroke:#000000;stroke-width:0.5625;stroke-linecap:butt;stroke-linejoin:bevel;stroke-miterlimit:10;stroke-dasharray:none;stroke-opacity:1"
       d="m 267.5,153.28756 c 0,3.10625 -2.51876,5.625 -5.625,5.625 -3.10625,0 -5.625,-2.51875 -5.625,-5.625 0,-3.10625 2.51875,-5.625 5.625,-5.625 3.10624,0 5.625,2.51875 5.625,5.625 z"
       inkscape:connector-curvature="0" />
    <path
       id="path3304"
       style="fill:none;stroke:#000000;stroke-width:3.375;stroke-linecap:butt;stroke-linejoin:miter;stroke-miterlimit:10;stroke-dasharray:1.125, 5.1;stroke-dashoffset:5.0999999;stroke-opacity:1"
       d="m 138.12501,153.28756 123.74999,0"
       inkscape:connector-curvature="0" />
    <text
       id="text3384"
       x="177.49983"
       y="136.41254"
       style="font-size:15px">
      <tspan
         style="font-variant:normal;font-weight:normal;font-size:15px;font-family:Helvetica;-inkscape-font-specification:Helvetica;writing-mode:lr-tb;fill:#000000;fill-opacity:1;fill-rule:nonzero;stroke:none"
         x="177.49983 185.8398 194.17976 197.50984 202.50484 210.8448 214.17488"
         y="136.41254"
         sodipodi:role="line"
         id="tspan3386">hairpin</tspan>
    </text>
    <text
       id="text3388"
       x="138.12483"
       y="175.78754"
       style="font-size:15px">
      <tspan
         style="font-style:italic;font-variant:normal;font-size:20.00024986px;font-family:'Times New Roman';-inkscape-font-specification:Times-Italic;writing-mode:lr-tb;fill:#000000;fill-opacity:1;fill-rule:nonzero;stroke:none"
         x="138.12483 261.87476"
         y="175.78754"
         sodipodi:role="line"
         id="tspan3390">ij</tspan>
    </text>
  </g>
</svg>
