<?xml version="1.0" encoding="UTF-8" standalone="no"?>
<!-- Created with Inkscape (http://www.inkscape.org/) -->

<svg
   xmlns:dc="http://purl.org/dc/elements/1.1/"
   xmlns:cc="http://creativecommons.org/ns#"
   xmlns:rdf="http://www.w3.org/1999/02/22-rdf-syntax-ns#"
   xmlns:svg="http://www.w3.org/2000/svg"
   xmlns="http://www.w3.org/2000/svg"
   xmlns:sodipodi="http://sodipodi.sourceforge.net/DTD/sodipodi-0.dtd"
   xmlns:inkscape="http://www.inkscape.org/namespaces/inkscape"
   width="84.611229mm"
   height="22.081322mm"
   viewBox="0 0 299.80357 78.240903"
   id="svg7299"
   version="1.1"
   inkscape:version="0.91 r13725"
   sodipodi:docname="decomp_ext_stem_ext.svg">
  <defs
     id="defs7301" />
  <sodipodi:namedview
     id="base"
     pagecolor="#ffffff"
     bordercolor="#666666"
     borderopacity="1.0"
     inkscape:pageopacity="0.0"
     inkscape:pageshadow="2"
     inkscape:zoom="3.3486569"
     inkscape:cx="189.76285"
     inkscape:cy="-6.9096708"
     inkscape:document-units="px"
     inkscape:current-layer="layer1"
     showgrid="false"
     showguides="true"
     inkscape:guide-bbox="true"
     inkscape:window-width="1920"
     inkscape:window-height="1058"
     inkscape:window-x="1920"
     inkscape:window-y="0"
     inkscape:window-maximized="1"
     fit-margin-top="0"
     fit-margin-left="0"
     fit-margin-right="0"
     fit-margin-bottom="0">
    <sodipodi:guide
       position="235.28126,26.372897"
       orientation="0,1"
       id="guide7940" />
    <sodipodi:guide
       position="304.74554,13.337187"
       orientation="0,1"
       id="guide7978" />
    <sodipodi:guide
       position="196.17412,60.658615"
       orientation="0,1"
       id="guide8024" />
  </sodipodi:namedview>
  <metadata
     id="metadata7304">
    <rdf:RDF>
      <cc:Work
         rdf:about="">
        <dc:format>image/svg+xml</dc:format>
        <dc:type
           rdf:resource="http://purl.org/dc/dcmitype/StillImage" />
        <dc:title></dc:title>
      </cc:Work>
    </rdf:RDF>
  </metadata>
  <g
     inkscape:label="Layer 1"
     inkscape:groupmode="layer"
     id="layer1"
     transform="translate(407.78125,-273.35134)">
    <path
       id="path3160"
       style="fill:#000000;fill-opacity:1;fill-rule:evenodd;stroke:none"
       d="m -396.25,324.55662 c 0,3.1065 -2.51855,5.625 -5.625,5.625 -3.10645,0 -5.625,-2.5185 -5.625,-5.625 0,-3.1065 2.51855,-5.625 5.625,-5.625 3.10645,0 5.625,2.5185 5.625,5.625"
       inkscape:connector-curvature="0" />
    <path
       id="path3162"
       style="fill:none;stroke:#000000;stroke-width:0.5625;stroke-linecap:butt;stroke-linejoin:bevel;stroke-miterlimit:10;stroke-dasharray:none;stroke-opacity:1"
       d="m -396.25,324.55662 c 0,3.1065 -2.51855,5.625 -5.625,5.625 -3.10645,0 -5.625,-2.5185 -5.625,-5.625 0,-3.1065 2.51855,-5.625 5.625,-5.625 3.10645,0 5.625,2.5185 5.625,5.625 z"
       inkscape:connector-curvature="0" />
    <path
       id="path3164"
       style="fill:#000000;fill-opacity:1;fill-rule:evenodd;stroke:none"
       d="m -272.5,324.55662 c 0,3.1065 -2.51876,5.625 -5.625,5.625 -3.10625,0 -5.625,-2.5185 -5.625,-5.625 0,-3.1065 2.51875,-5.625 5.625,-5.625 3.10624,0 5.625,2.5185 5.625,5.625"
       inkscape:connector-curvature="0" />
    <path
       id="path3166"
       style="fill:none;stroke:#000000;stroke-width:0.5625;stroke-linecap:butt;stroke-linejoin:bevel;stroke-miterlimit:10;stroke-dasharray:none;stroke-opacity:1"
       d="m -272.5,324.55662 c 0,3.1065 -2.51876,5.625 -5.625,5.625 -3.10625,0 -5.625,-2.5185 -5.625,-5.625 0,-3.1065 2.51875,-5.625 5.625,-5.625 3.10624,0 5.625,2.5185 5.625,5.625 z"
       inkscape:connector-curvature="0" />
    <path
       id="path3286"
       style="fill:none;stroke:#000000;stroke-width:1.125;stroke-linecap:butt;stroke-linejoin:miter;stroke-miterlimit:10;stroke-dasharray:none;stroke-opacity:1"
       d="m -401.875,324.55662 123.75,0"
       inkscape:connector-curvature="0" />
    <text
       id="text3352"
       x="-401.87518"
       y="347.05661"
       style="font-size:15px">
      <tspan
         style="font-style:italic;font-variant:normal;font-size:20.00024986px;font-family:'Times New Roman';-inkscape-font-specification:Times-Italic;writing-mode:lr-tb;fill:#000000;fill-opacity:1;fill-rule:nonzero;stroke:none"
         x="-401.87518 -278.12524"
         y="347.05661"
         sodipodi:role="line"
         id="tspan3354">ij</tspan>
    </text>
    <text
       id="text3356"
       x="-347.36804"
       y="313.8009"
       style="font-size:15px">
      <tspan
         style="font-style:italic;font-variant:normal;font-size:24.99975014px;font-family:'Times New Roman';-inkscape-font-specification:Times-Italic;writing-mode:lr-tb;fill:#000000;fill-opacity:1;fill-rule:nonzero;stroke:none"
         x="-347.36804"
         y="313.8009"
         id="tspan3358">F</tspan>
    </text>
    <text
       xml:space="preserve"
       style="font-style:normal;font-variant:normal;font-weight:normal;font-stretch:normal;font-size:10px;line-height:125%;font-family:Arial;-inkscape-font-specification:Arial;text-align:start;letter-spacing:0px;word-spacing:0px;writing-mode:lr-tb;text-anchor:start;fill:#000000;fill-opacity:1;stroke:none;stroke-width:1px;stroke-linecap:butt;stroke-linejoin:miter;stroke-opacity:1"
       x="-262.55853"
       y="333.74634"
       id="text7873"
       sodipodi:linespacing="125%"><tspan
         sodipodi:role="line"
         id="tspan7875"
         x="-262.55853"
         y="333.74634"
         style="font-size:25px">=</tspan></text>
    <path
       id="path3088"
       style="fill:#e69f00;fill-opacity:1;fill-rule:evenodd;stroke:none"
       d="m -237.47712,324.68226 c -0.0781,-0.85929 -0.11717,-1.72179 -0.11717,-2.58475 0,-15.76699 12.78245,-28.54944 28.54944,-28.54944 15.76698,0 28.54943,12.78245 28.54943,28.54944 0,0.86296 -0.0391,1.72546 -0.11716,2.58475"
       inkscape:connector-curvature="0" />
    <path
       id="path3090"
       style="fill:none;stroke:#000000;stroke-width:0.51695031;stroke-linecap:butt;stroke-linejoin:bevel;stroke-miterlimit:10;stroke-dasharray:none;stroke-opacity:1"
       d="m -237.47712,324.68226 c -0.0781,-0.85929 -0.11717,-1.72179 -0.11717,-2.58475 0,-15.76699 12.78245,-28.54944 28.54944,-28.54944 15.76698,0 28.54943,12.78245 28.54943,28.54944 0,0.86296 -0.0391,1.72546 -0.11716,2.58475"
       inkscape:connector-curvature="0" />
    <text
       id="text3330"
       x="-219.37323"
       y="317.02441"
       style="font-size:13.78534222px">
      <tspan
         style="font-style:italic;font-variant:normal;font-size:22.97533989px;font-family:'Times New Roman';-inkscape-font-specification:Times-Italic;writing-mode:lr-tb;fill:#000000;fill-opacity:1;fill-rule:nonzero;stroke:none"
         x="-219.37323"
         y="317.02441"
         id="tspan3332">C</tspan>
    </text>
    <path
       id="path3196-8"
       style="fill:#000000;fill-opacity:1;fill-rule:evenodd;stroke:none"
       d="m -228.97306,324.50241 c 0,3.1065 -2.51876,5.625 -5.625,5.625 -3.10625,0 -5.625,-2.5185 -5.625,-5.625 0,-3.1065 2.51875,-5.625 5.625,-5.625 3.10624,0 5.625,2.5185 5.625,5.625"
       inkscape:connector-curvature="0" />
    <path
       id="path3198-3"
       style="fill:none;stroke:#000000;stroke-width:0.5625;stroke-linecap:butt;stroke-linejoin:bevel;stroke-miterlimit:10;stroke-dasharray:none;stroke-opacity:1"
       d="m -228.97306,324.50241 c 0,3.1065 -2.51876,5.625 -5.625,5.625 -3.10625,0 -5.625,-2.5185 -5.625,-5.625 0,-3.1065 2.51875,-5.625 5.625,-5.625 3.10624,0 5.625,2.5185 5.625,5.625 z"
       inkscape:connector-curvature="0" />
    <path
       id="path3252-9"
       style="fill:#000000;fill-opacity:1;fill-rule:evenodd;stroke:none"
       d="m -177.72306,324.50241 c 0,3.1065 -2.51876,5.625 -5.625,5.625 -3.10625,0 -5.625,-2.5185 -5.625,-5.625 0,-3.1065 2.51875,-5.625 5.625,-5.625 3.10624,0 5.625,2.5185 5.625,5.625"
       inkscape:connector-curvature="0" />
    <path
       id="path3254-9"
       style="fill:none;stroke:#000000;stroke-width:0.5625;stroke-linecap:butt;stroke-linejoin:bevel;stroke-miterlimit:10;stroke-dasharray:none;stroke-opacity:1"
       d="m -177.72306,324.50241 c 0,3.1065 -2.51876,5.625 -5.625,5.625 -3.10625,0 -5.625,-2.5185 -5.625,-5.625 0,-3.1065 2.51875,-5.625 5.625,-5.625 3.10624,0 5.625,2.5185 5.625,5.625 z"
       inkscape:connector-curvature="0" />
    <path
       id="path3302"
       style="fill:none;stroke:#000000;stroke-width:1.125;stroke-linecap:butt;stroke-linejoin:miter;stroke-miterlimit:10;stroke-dasharray:none;stroke-opacity:1"
       d="m -234.59806,324.50241 56.25,0"
       inkscape:connector-curvature="0" />
    <path
       id="path3200-3"
       style="fill:#000000;fill-opacity:1;fill-rule:evenodd;stroke:none"
       d="m -158.97306,324.50241 c 0,3.1065 -2.51876,5.625 -5.625,5.625 -3.10625,0 -5.625,-2.5185 -5.625,-5.625 0,-3.1065 2.51875,-5.625 5.625,-5.625 3.10624,0 5.625,2.5185 5.625,5.625"
       inkscape:connector-curvature="0" />
    <path
       id="path3202-0"
       style="fill:none;stroke:#000000;stroke-width:0.5625;stroke-linecap:butt;stroke-linejoin:bevel;stroke-miterlimit:10;stroke-dasharray:none;stroke-opacity:1"
       d="m -158.97306,324.50241 c 0,3.1065 -2.51876,5.625 -5.625,5.625 -3.10625,0 -5.625,-2.5185 -5.625,-5.625 0,-3.1065 2.51875,-5.625 5.625,-5.625 3.10624,0 5.625,2.5185 5.625,5.625 z"
       inkscape:connector-curvature="0" />
    <path
       id="path3204-7"
       style="fill:#000000;fill-opacity:1;fill-rule:evenodd;stroke:none"
       d="m -108.88377,324.50241 c 0,3.1065 -2.51876,5.625 -5.625,5.625 -3.10626,0 -5.625,-2.5185 -5.625,-5.625 0,-3.1065 2.51874,-5.625 5.625,-5.625 3.10624,0 5.625,2.5185 5.625,5.625"
       inkscape:connector-curvature="0" />
    <path
       id="path3284-6"
       style="fill:none;stroke:#000000;stroke-width:1.125;stroke-linecap:butt;stroke-linejoin:miter;stroke-miterlimit:10;stroke-dasharray:none;stroke-opacity:1"
       d="m -167.09806,324.50241 52.94643,0"
       inkscape:connector-curvature="0"
       sodipodi:nodetypes="cc" />
    <path
       id="path3206-2"
       style="fill:none;stroke:#000000;stroke-width:0.5625;stroke-linecap:butt;stroke-linejoin:bevel;stroke-miterlimit:10;stroke-dasharray:none;stroke-opacity:1"
       d="m -108.88377,324.50241 c 0,3.1065 -2.51876,5.625 -5.625,5.625 -3.10626,0 -5.625,-2.5185 -5.625,-5.625 0,-3.1065 2.51874,-5.625 5.625,-5.625 3.10624,0 5.625,2.5185 5.625,5.625 z"
       inkscape:connector-curvature="0" />
    <text
       id="text3352-8-9"
       x="-240.53419"
       y="347.11813"
       style="font-size:15px">
      <tspan
         style="font-style:italic;font-variant:normal;font-size:20.00024986px;font-family:'Times New Roman';-inkscape-font-specification:Times-Italic;writing-mode:lr-tb;fill:#000000;fill-opacity:1;fill-rule:nonzero;stroke:none"
         x="-240.53419 -116.78425"
         y="347.11813"
         sodipodi:role="line"
         id="tspan3354-1-7">ij</tspan>
    </text>
    <text
       id="text3352-2-3"
       x="-189.64134"
       y="346.93954"
       style="font-size:15px">
      <tspan
         style="font-style:italic;font-variant:normal;font-size:20.00024986px;font-family:'Times New Roman';-inkscape-font-specification:Times-Italic;writing-mode:lr-tb;fill:#000000;fill-opacity:1;fill-rule:nonzero;stroke:none"
         x="-189.64134"
         y="346.93954"
         sodipodi:role="line"
         id="tspan3354-0-5">k</tspan>
    </text>
    <text
       id="text3352-2-0-6"
       x="-170.42192"
       y="346.88797"
       style="font-size:15px">
      <tspan
         style="font-style:italic;font-variant:normal;font-size:20.00024986px;font-family:'Times New Roman';-inkscape-font-specification:Times-Italic;writing-mode:lr-tb;fill:#000000;fill-opacity:1;fill-rule:nonzero;stroke:none"
         x="-170.42192"
         y="346.88797"
         sodipodi:role="line"
         id="tspan3354-0-9-4">l</tspan>
    </text>
    <text
       id="text3356-4-9"
       x="-144.97685"
       y="313.5813"
       style="font-size:15px">
      <tspan
         style="font-style:italic;font-variant:normal;font-size:24.99975014px;font-family:'Times New Roman';-inkscape-font-specification:Times-Italic;writing-mode:lr-tb;fill:#000000;fill-opacity:1;fill-rule:nonzero;stroke:none"
         x="-144.97685"
         y="313.5813"
         id="tspan3358-0-4">F</tspan>
    </text>
  </g>
</svg>
