<?xml version="1.0" encoding="UTF-8" standalone="no"?>
<!-- Created with Inkscape (http://www.inkscape.org/) -->

<svg
   xmlns:dc="http://purl.org/dc/elements/1.1/"
   xmlns:cc="http://creativecommons.org/ns#"
   xmlns:rdf="http://www.w3.org/1999/02/22-rdf-syntax-ns#"
   xmlns:svg="http://www.w3.org/2000/svg"
   xmlns="http://www.w3.org/2000/svg"
   xmlns:sodipodi="http://sodipodi.sourceforge.net/DTD/sodipodi-0.dtd"
   xmlns:inkscape="http://www.inkscape.org/namespaces/inkscape"
   width="38.258751mm"
   height="20.523029mm"
   viewBox="0 0 135.5625 72.719395"
   id="svg6493"
   version="1.1"
   inkscape:version="0.91 r13725"
   sodipodi:docname="decomp_ml.svg">
  <sodipodi:namedview
     id="base"
     pagecolor="#ffffff"
     bordercolor="#666666"
     borderopacity="1.0"
     inkscape:pageopacity="0.0"
     inkscape:pageshadow="2"
     inkscape:zoom="10.563393"
     inkscape:cx="67.781252"
     inkscape:cy="36.359698"
     inkscape:document-units="px"
     inkscape:current-layer="layer1"
     showgrid="false"
     fit-margin-top="0"
     fit-margin-left="0"
     fit-margin-right="0"
     fit-margin-bottom="0"
     inkscape:window-width="1920"
     inkscape:window-height="1058"
     inkscape:window-x="1920"
     inkscape:window-y="0"
     inkscape:window-maximized="1" />
  <defs
     id="defs6495" />
  <metadata
     id="metadata6498">
    <rdf:RDF>
      <cc:Work
         rdf:about="">
        <dc:format>image/svg+xml</dc:format>
        <dc:type
           rdf:resource="http://purl.org/dc/dcmitype/StillImage" />
        <dc:title></dc:title>
      </cc:Work>
    </rdf:RDF>
  </metadata>
  <g
     transform="translate(-146.50447,-76.002506)"
     id="layer1"
     inkscape:groupmode="layer"
     inkscape:label="Layer 1">
    <path
       inkscape:connector-curvature="0"
       d="m 162.44537,121.52851 0.29752,-0.22586 0.59508,-0.45171 1.04139,-0.67757 1.4877,-1.12928 1.93401,-1.46807 2.38031,-1.69392 2.67788,-1.91978 2.8266,-1.91978 3.12419,-2.14565 3.12416,-2.03271 3.27295,-2.0327 3.42169,-1.91978 3.42171,-1.80686 3.57048,-1.80685 3.86801,-1.581 3.71925,-1.468063 3.86802,-1.129283 5.05817,-0.903427 4.01678,-0.112927 2.52909,0.564641 1.4877,1.129282 0.59506,1.35514 0.29754,1.468073 0.14876,1.580984 0.44631,1.35514 0.89263,1.24222 1.63646,0.79049 2.38032,0.33879 2.82662,-0.33879 2.5291,-1.01635 1.934,-1.58099 1.0414,-1.80686 0.4463,-2.032707 -0.14877,-2.032709 -0.29753,-2.145638 -0.14878,-2.032708 -0.14877,-1.919781 0.44631,-1.581003 1.04139,-1.129282 1.93401,-0.451713 2.52908,0.790497 1.93401,1.242217 1.93401,1.693925 1.78524,2.03271 1.78523,2.258564 1.78522,2.484424 1.78524,2.597351 1.4877,2.710273 1.63649,2.82321 1.48769,2.8232 1.4877,2.71029 1.33891,2.71028 1.19016,2.25856 1.04138,2.03271 0.74385,1.581 0.44631,1.01635 0.29754,0.56465 0.14878,0.33878"
       style="fill:#89a6b6;fill-opacity:1;fill-rule:evenodd;stroke:none"
       id="path3028" />
    <path
       inkscape:connector-curvature="0"
       d="m 152.40696,121.81126 c 8.57375,-26.946254 33.60125,-45.246254 61.87876,-45.246254 28.2775,0 53.30499,18.3 61.87874,45.246254"
       style="fill:none;stroke:#000000;stroke-width:1.125;stroke-linecap:butt;stroke-linejoin:bevel;stroke-miterlimit:10;stroke-dasharray:none;stroke-opacity:1"
       id="path3074" />
    <path
       inkscape:connector-curvature="0"
       d="m 158.03572,121.81251 c 0,3.10625 -2.51876,5.625 -5.625,5.625 -3.10626,0 -5.625,-2.51875 -5.625,-5.625 0,-3.10625 2.51874,-5.625 5.625,-5.625 3.10624,0 5.625,2.51875 5.625,5.625"
       style="fill:#000000;fill-opacity:1;fill-rule:evenodd;stroke:none"
       id="path3216" />
    <path
       inkscape:connector-curvature="0"
       d="m 158.03572,121.81251 c 0,3.10625 -2.51876,5.625 -5.625,5.625 -3.10626,0 -5.625,-2.51875 -5.625,-5.625 0,-3.10625 2.51874,-5.625 5.625,-5.625 3.10624,0 5.625,2.51875 5.625,5.625 z"
       style="fill:none;stroke:#000000;stroke-width:0.5625;stroke-linecap:butt;stroke-linejoin:bevel;stroke-miterlimit:10;stroke-dasharray:none;stroke-opacity:1"
       id="path3218" />
    <path
       inkscape:connector-curvature="0"
       d="m 281.78572,121.81251 c 0,3.10625 -2.51875,5.625 -5.625,5.625 -3.10626,0 -5.625,-2.51875 -5.625,-5.625 0,-3.10625 2.51874,-5.625 5.625,-5.625 3.10625,0 5.625,2.51875 5.625,5.625"
       style="fill:#000000;fill-opacity:1;fill-rule:evenodd;stroke:none"
       id="path3220" />
    <path
       inkscape:connector-curvature="0"
       d="m 281.78572,121.81251 c 0,3.10625 -2.51875,5.625 -5.625,5.625 -3.10626,0 -5.625,-2.51875 -5.625,-5.625 0,-3.10625 2.51874,-5.625 5.625,-5.625 3.10625,0 5.625,2.51875 5.625,5.625 z"
       style="fill:none;stroke:#000000;stroke-width:0.5625;stroke-linecap:butt;stroke-linejoin:bevel;stroke-miterlimit:10;stroke-dasharray:none;stroke-opacity:1"
       id="path3222" />
    <path
       inkscape:connector-curvature="0"
       d="m 172.97772,121.81251 c 0,3.10625 -2.51875,5.625 -5.625,5.625 -3.10626,0 -5.625,-2.51875 -5.625,-5.625 0,-3.10625 2.51874,-5.625 5.625,-5.625 3.10625,0 5.625,2.51875 5.625,5.625"
       style="fill:#000000;fill-opacity:1;fill-rule:evenodd;stroke:none"
       id="path3232" />
    <path
       inkscape:connector-curvature="0"
       d="m 172.97772,121.81251 c 0,3.10625 -2.51875,5.625 -5.625,5.625 -3.10626,0 -5.625,-2.51875 -5.625,-5.625 0,-3.10625 2.51874,-5.625 5.625,-5.625 3.10625,0 5.625,2.51875 5.625,5.625 z"
       style="fill:none;stroke:#000000;stroke-width:0.5625;stroke-linecap:butt;stroke-linejoin:bevel;stroke-miterlimit:10;stroke-dasharray:none;stroke-opacity:1"
       id="path3234" />
    <path
       inkscape:connector-curvature="0"
       d="m 267.31706,121.81251 c 0,3.10625 -2.51875,5.625 -5.625,5.625 -3.10626,0 -5.625,-2.51875 -5.625,-5.625 0,-3.10625 2.51874,-5.625 5.625,-5.625 3.10625,0 5.625,2.51875 5.625,5.625"
       style="fill:#000000;fill-opacity:1;fill-rule:evenodd;stroke:none"
       id="path3236" />
    <path
       inkscape:connector-curvature="0"
       d="m 267.31706,121.81251 c 0,3.10625 -2.51875,5.625 -5.625,5.625 -3.10626,0 -5.625,-2.51875 -5.625,-5.625 0,-3.10625 2.51874,-5.625 5.625,-5.625 3.10625,0 5.625,2.51875 5.625,5.625 z"
       style="fill:none;stroke:#000000;stroke-width:0.5625;stroke-linecap:butt;stroke-linejoin:bevel;stroke-miterlimit:10;stroke-dasharray:none;stroke-opacity:1"
       id="path3238" />
    <path
       sodipodi:nodetypes="cc"
       inkscape:connector-curvature="0"
       d="m 153.83346,121.71784 123.84192,0"
       style="fill:none;stroke:#000000;stroke-width:1.125;stroke-linecap:butt;stroke-linejoin:miter;stroke-miterlimit:10;stroke-dasharray:none;stroke-opacity:1"
       id="path3298" />
    <text
       style="font-size:15px"
       y="143.66289"
       x="146.55315"
       id="text3388-3-1-9">
      <tspan
         y="143.66289"
         x="146.55315"
         id="tspan3390-2-4-1"
         sodipodi:role="line"
         style="font-style:italic;font-variant:normal;font-size:20.00024986px;font-family:'Times New Roman';-inkscape-font-specification:Times-Italic;writing-mode:lr-tb;fill:#000000;fill-opacity:1;fill-rule:nonzero;stroke:none">i</tspan>
    </text>
    <text
       style="font-size:15px"
       y="144.40544"
       x="161.95078"
       id="text3388-3-1-0">
      <tspan
         y="144.40544"
         x="161.95078"
         id="tspan3390-2-4-9"
         sodipodi:role="line"
         style="font-style:italic;font-variant:normal;font-size:20.00024986px;font-family:'Times New Roman';-inkscape-font-specification:Times-Italic;writing-mode:lr-tb;fill:#000000;fill-opacity:1;fill-rule:nonzero;stroke:none">k</tspan>
    </text>
    <text
       style="font-size:15px"
       y="144.40538"
       x="257.35764"
       id="text3388-3-1-2">
      <tspan
         y="144.40538"
         x="257.35764"
         id="tspan3390-2-4-5"
         sodipodi:role="line"
         style="font-style:italic;font-variant:normal;font-size:20.00024986px;font-family:'Times New Roman';-inkscape-font-specification:Times-Italic;writing-mode:lr-tb;fill:#000000;fill-opacity:1;fill-rule:nonzero;stroke:none">l</tspan>
    </text>
    <text
       style="font-size:15px"
       y="144.40544"
       x="271.29486"
       id="text3388-3-1-20">
      <tspan
         y="144.40544"
         x="271.29486"
         id="tspan3390-2-4-8"
         sodipodi:role="line"
         style="font-style:italic;font-variant:normal;font-size:20.00024986px;font-family:'Times New Roman';-inkscape-font-specification:Times-Italic;writing-mode:lr-tb;fill:#000000;fill-opacity:1;fill-rule:nonzero;stroke:none">j</tspan>
    </text>
    <text
       sodipodi:linespacing="125%"
       id="text7173"
       y="114.7366"
       x="196.86707"
       style="font-style:normal;font-variant:normal;font-weight:normal;font-stretch:normal;font-size:10px;line-height:125%;font-family:Arial;-inkscape-font-specification:Arial;text-align:start;letter-spacing:0px;word-spacing:0px;writing-mode:lr-tb;text-anchor:start;fill:#000000;fill-opacity:1;stroke:none;stroke-width:1px;stroke-linecap:butt;stroke-linejoin:miter;stroke-opacity:1"
       xml:space="preserve"><tspan
         y="114.7366"
         x="196.86707"
         id="tspan7175"
         sodipodi:role="line">2 branches</tspan></text>
    <g
       id="g7203"
       transform="matrix(1.8043348,0,0,1.8043348,135.45157,6.2390456)">
      <g
         word-spacing="normal"
         letter-spacing="normal"
         font-size-adjust="none"
         font-stretch="normal"
         font-weight="normal"
         font-variant="normal"
         font-style="normal"
         stroke-miterlimit="10.433"
         xml:space="preserve"
         transform="matrix(0.10388485,0,0,-0.10388485,-18.179849,101.67188)"
         id="content"
         style="font-style:normal;font-variant:normal;font-weight:normal;font-stretch:normal;letter-spacing:normal;word-spacing:normal;text-anchor:start;fill:none;fill-opacity:1;fill-rule:evenodd;stroke:#000000;stroke-linecap:butt;stroke-linejoin:miter;stroke-miterlimit:10.43299961;stroke-dasharray:none;stroke-dashoffset:0;stroke-opacity:1"><path
           id="path7206"
           d="m 489.1,422.34 0.06,0.03 0.07,0.03 0.06,0.03 0.05,0.02 0.06,0.03 0.05,0.03 0.05,0.03 0.05,0.03 0.05,0.04 0.04,0.03 0.04,0.03 0.04,0.03 0.04,0.03 0.04,0.04 0.03,0.03 0.03,0.03 0.03,0.04 0.03,0.03 0.02,0.04 0.03,0.03 0.02,0.04 0.02,0.04 0.02,0.03 0.01,0.04 0.01,0.04 0.02,0.04 0.01,0.03 0,0.04 0.01,0.04 0,0.04 0.01,0.04 0,0.04 c 0,0.5 -0.21,0.8 -1,1.16 l -27.46,12.95 c -0.68,0.35 -0.89,0.35 -1,0.35 -0.59,0 -0.98,-0.46 -0.98,-1 0,-0.6 0.39,-0.85 0.94,-1.1 l 26.15,-12.31 -26.04,-12.3 c -1,-0.45 -1.05,-0.84 -1.05,-1.14 0,-0.56 0.44,-1 0.98,-1 0.16,0 0.25,0 0.91,0.35 z"
           inkscape:connector-curvature="0"
           style="fill:#000000;stroke-width:0" /><path
           id="path7208"
           d="m 488.35,399.37 0.16,0 0.16,0 0.15,0.01 0.08,0 0.08,0.01 0.07,0 0.08,0.01 0.07,0.01 0.07,0.01 0.07,0.02 0.07,0.01 0.07,0.02 0.06,0.03 0.06,0.02 0.06,0.03 0.05,0.03 0.06,0.04 0.05,0.03 0.04,0.05 0.04,0.04 0.04,0.05 0.02,0.03 0.02,0.03 0.01,0.03 0.02,0.03 0.01,0.03 0.02,0.03 0.01,0.04 0.01,0.03 0.01,0.04 0,0.04 0.01,0.03 0.01,0.04 0,0.05 0.01,0.04 0,0.04 0,0.05 c 0,1 -1.05,1 -1.8,1 l -26.86,0 c -0.73,0 -1.78,0 -1.78,-1 0,-1 0.89,-1 1.73,-1 z"
           inkscape:connector-curvature="0"
           style="fill:#000000;stroke-width:0" /></g>    </g>
    <text
       xml:space="preserve"
       style="font-style:normal;font-variant:normal;font-weight:normal;font-stretch:normal;font-size:10px;line-height:125%;font-family:Arial;-inkscape-font-specification:Arial;text-align:start;letter-spacing:0px;word-spacing:0px;writing-mode:lr-tb;text-anchor:start;fill:#000000;fill-opacity:1;stroke:none;stroke-width:1px;stroke-linecap:butt;stroke-linejoin:miter;stroke-opacity:1"
       x="191.09241"
       y="89.365974"
       id="text7238"
       sodipodi:linespacing="125%"><tspan
         sodipodi:role="line"
         id="tspan7240"
         x="191.09241"
         y="89.365974">multi-loop</tspan></text>
  </g>
</svg>
